<svg version="1.1" xmlns="http://www.w3.org/2000/svg" xmlns:xlink="http://www.w3.org/1999/xlink" width="324.96419" height="331.61904" viewBox="0,0,324.96419,331.61904"><defs><radialGradient cx="309.19879" cy="244.51281" r="81.97269" gradientUnits="userSpaceOnUse" id="color-1"><stop offset="0" stop-color="#000000" stop-opacity="0"/><stop offset="1" stop-color="#000000"/></radialGradient><radialGradient cx="148.67998" cy="229.18603" r="81.97269" gradientUnits="userSpaceOnUse" id="color-2"><stop offset="0" stop-color="#000000" stop-opacity="0"/><stop offset="1" stop-color="#000000"/></radialGradient><radialGradient cx="224.10136" cy="118.97156" r="52.41714" gradientUnits="userSpaceOnUse" id="color-3"><stop offset="0" stop-color="#000000" stop-opacity="0"/><stop offset="1" stop-color="#000000"/></radialGradient><radialGradient cx="224.6928" cy="159.40656" r="15.50571" gradientUnits="userSpaceOnUse" id="color-4"><stop offset="0" stop-color="#000000" stop-opacity="0"/><stop offset="1" stop-color="#000000"/></radialGradient><radialGradient cx="211.79724" cy="297.19782" r="56.4285" gradientUnits="userSpaceOnUse" id="color-5"><stop offset="0" stop-color="#000000" stop-opacity="0"/><stop offset="1" stop-color="#000000"/></radialGradient><radialGradient cx="241.07748" cy="296.7785" r="56.4285" gradientUnits="userSpaceOnUse" id="color-6"><stop offset="0" stop-color="#000000" stop-opacity="0"/><stop offset="1" stop-color="#000000"/></radialGradient><radialGradient cx="227.36831" cy="215.63616" r="40.29547" gradientUnits="userSpaceOnUse" id="color-7"><stop offset="0" stop-color="#000000" stop-opacity="0"/><stop offset="1" stop-color="#000000"/></radialGradient><radialGradient cx="188.68006" cy="197.92425" r="23.73929" gradientUnits="userSpaceOnUse" id="color-8"><stop offset="0" stop-color="#000000" stop-opacity="0"/><stop offset="1" stop-color="#000000"/></radialGradient><radialGradient cx="226.5714" cy="194.64906" r="51.16469" gradientUnits="userSpaceOnUse" id="color-9"><stop offset="0" stop-color="#000000" stop-opacity="0"/><stop offset="1" stop-color="#000000"/></radialGradient><radialGradient cx="228.39051" cy="223.1462" r="29.17173" gradientUnits="userSpaceOnUse" id="color-10"><stop offset="0" stop-color="#000000" stop-opacity="0"/><stop offset="1" stop-color="#000000"/></radialGradient><radialGradient cx="186.57832" cy="195.15678" r="10.69046" gradientUnits="userSpaceOnUse" id="color-11"><stop offset="0" stop-color="#000000" stop-opacity="0"/><stop offset="1" stop-color="#000000"/></radialGradient><radialGradient cx="198.36076" cy="220.08245" r="2.84006" gradientUnits="userSpaceOnUse" id="color-12"><stop offset="0" stop-color="#000000" stop-opacity="0"/><stop offset="1" stop-color="#000000"/></radialGradient><radialGradient cx="267.03372" cy="196.41939" r="10.69047" gradientUnits="userSpaceOnUse" id="color-13"><stop offset="0" stop-color="#000000" stop-opacity="0"/><stop offset="1" stop-color="#000000"/></radialGradient><radialGradient cx="262.83074" cy="128.70892" r="13.34818" gradientUnits="userSpaceOnUse" id="color-14"><stop offset="0" stop-color="#000000" stop-opacity="0"/><stop offset="1" stop-color="#000000"/></radialGradient><radialGradient cx="186.76066" cy="129.40731" r="13.34818" gradientUnits="userSpaceOnUse" id="color-15"><stop offset="0" stop-color="#000000" stop-opacity="0"/><stop offset="1" stop-color="#000000"/></radialGradient><radialGradient cx="224.90731" cy="158.64898" r="13.50299" gradientUnits="userSpaceOnUse" id="color-16"><stop offset="0" stop-color="#000000" stop-opacity="0"/><stop offset="1" stop-color="#000000"/></radialGradient><radialGradient cx="225.03826" cy="153.6476" r="10.47032" gradientUnits="userSpaceOnUse" id="color-17"><stop offset="0" stop-color="#000000" stop-opacity="0"/><stop offset="1" stop-color="#000000"/></radialGradient><radialGradient cx="225.17385" cy="126.73667" r="44.05171" gradientUnits="userSpaceOnUse" id="color-18"><stop offset="0" stop-color="#000000" stop-opacity="0"/><stop offset="1" stop-color="#000000"/></radialGradient><radialGradient cx="224.57531" cy="122.62338" r="43.54309" gradientUnits="userSpaceOnUse" id="color-19"><stop offset="0" stop-color="#000000" stop-opacity="0"/><stop offset="1" stop-color="#000000"/></radialGradient><radialGradient cx="213.27115" cy="124.49477" r="30.05518" gradientUnits="userSpaceOnUse" id="color-20"><stop offset="0" stop-color="#000000" stop-opacity="0"/><stop offset="1" stop-color="#000000"/></radialGradient><radialGradient cx="221.71756" cy="105.87324" r="50.94507" gradientUnits="userSpaceOnUse" id="color-21"><stop offset="0" stop-color="#000000" stop-opacity="0"/><stop offset="1" stop-color="#000000"/></radialGradient><radialGradient cx="234.23545" cy="167.19468" r="12.61345" gradientUnits="userSpaceOnUse" id="color-22"><stop offset="0" stop-color="#000000" stop-opacity="0"/><stop offset="1" stop-color="#000000"/></radialGradient><radialGradient cx="217.26052" cy="167.11973" r="12.61344" gradientUnits="userSpaceOnUse" id="color-23"><stop offset="0" stop-color="#000000" stop-opacity="0"/><stop offset="1" stop-color="#000000"/></radialGradient><radialGradient cx="220.2199" cy="181.17288" r="12.09282" gradientUnits="userSpaceOnUse" id="color-24"><stop offset="0" stop-color="#000000" stop-opacity="0"/><stop offset="1" stop-color="#000000"/></radialGradient><radialGradient cx="233.84949" cy="182.13843" r="13.36236" gradientUnits="userSpaceOnUse" id="color-25"><stop offset="0" stop-color="#000000" stop-opacity="0"/><stop offset="1" stop-color="#000000"/></radialGradient><radialGradient cx="187.48184" cy="196.66621" r="32.49548" gradientUnits="userSpaceOnUse" id="color-26"><stop offset="0" stop-color="#000000" stop-opacity="0"/><stop offset="1" stop-color="#000000"/></radialGradient><radialGradient cx="185.94" cy="234.94945" r="16.9485" gradientUnits="userSpaceOnUse" id="color-27"><stop offset="0" stop-color="#000000" stop-opacity="0"/><stop offset="1" stop-color="#000000"/></radialGradient><radialGradient cx="191.93982" cy="258.8968" r="14.71632" gradientUnits="userSpaceOnUse" id="color-28"><stop offset="0" stop-color="#000000" stop-opacity="0"/><stop offset="1" stop-color="#000000"/></radialGradient><radialGradient cx="186.98518" cy="219.65004" r="11.06136" gradientUnits="userSpaceOnUse" id="color-29"><stop offset="0" stop-color="#000000" stop-opacity="0"/><stop offset="1" stop-color="#000000"/></radialGradient><radialGradient cx="264.16377" cy="198.72633" r="32.36528" gradientUnits="userSpaceOnUse" id="color-30"><stop offset="0" stop-color="#000000" stop-opacity="0"/><stop offset="1" stop-color="#000000"/></radialGradient><radialGradient cx="266.44641" cy="236.99382" r="17.01986" gradientUnits="userSpaceOnUse" id="color-31"><stop offset="0" stop-color="#000000" stop-opacity="0"/><stop offset="1" stop-color="#000000"/></radialGradient><radialGradient cx="261.35936" cy="260.99272" r="14.72463" gradientUnits="userSpaceOnUse" id="color-32"><stop offset="0" stop-color="#000000" stop-opacity="0"/><stop offset="1" stop-color="#000000"/></radialGradient><radialGradient cx="265.38272" cy="221.55006" r="11.06839" gradientUnits="userSpaceOnUse" id="color-33"><stop offset="0" stop-color="#000000" stop-opacity="0"/><stop offset="1" stop-color="#000000"/></radialGradient><radialGradient cx="208.05896" cy="346.47065" r="11.58289" gradientUnits="userSpaceOnUse" id="color-34"><stop offset="0" stop-color="#000000" stop-opacity="0"/><stop offset="1" stop-color="#000000"/></radialGradient><radialGradient cx="244.95262" cy="346.47065" r="11.58289" gradientUnits="userSpaceOnUse" id="color-35"><stop offset="0" stop-color="#000000" stop-opacity="0"/><stop offset="1" stop-color="#000000"/></radialGradient><radialGradient cx="246.02511" cy="353.66758" r="11.79739" gradientUnits="userSpaceOnUse" id="color-36"><stop offset="0" stop-color="#000000" stop-opacity="0"/><stop offset="1" stop-color="#000000"/></radialGradient><radialGradient cx="208.21496" cy="353.2888" r="11.73889" gradientUnits="userSpaceOnUse" id="color-37"><stop offset="0" stop-color="#000000" stop-opacity="0"/><stop offset="1" stop-color="#000000"/></radialGradient><radialGradient cx="208.48796" cy="337.94798" r="6.43494" gradientUnits="userSpaceOnUse" id="color-38"><stop offset="0" stop-color="#000000" stop-opacity="0"/><stop offset="1" stop-color="#000000"/></radialGradient><radialGradient cx="244.52362" cy="338.32676" r="6.43494" gradientUnits="userSpaceOnUse" id="color-39"><stop offset="0" stop-color="#000000" stop-opacity="0"/><stop offset="1" stop-color="#000000"/></radialGradient><radialGradient cx="221.01465" cy="224.02434" r="6.60654" gradientUnits="userSpaceOnUse" id="color-40"><stop offset="0" stop-color="#000000" stop-opacity="0"/><stop offset="1" stop-color="#000000"/></radialGradient><radialGradient cx="221.09594" cy="224.77034" r="7.30545" gradientUnits="userSpaceOnUse" id="color-41"><stop offset="0" stop-color="#000000" stop-opacity="0"/><stop offset="1" stop-color="#000000"/></radialGradient><radialGradient cx="230.45361" cy="205.37458" r="8.76958" gradientUnits="userSpaceOnUse" id="color-42"><stop offset="0" stop-color="#000000" stop-opacity="0"/><stop offset="1" stop-color="#000000"/></radialGradient><radialGradient cx="251.73188" cy="238.03664" r="4.00343" gradientUnits="userSpaceOnUse" id="color-43"><stop offset="0" stop-color="#000000" stop-opacity="0"/><stop offset="1" stop-color="#000000"/></radialGradient><radialGradient cx="180.43887" cy="183.41769" r="2.70806" gradientUnits="userSpaceOnUse" id="color-44"><stop offset="0" stop-color="#000000" stop-opacity="0"/><stop offset="1" stop-color="#000000"/></radialGradient><radialGradient cx="179.91482" cy="207.27642" r="4.07747" gradientUnits="userSpaceOnUse" id="color-45"><stop offset="0" stop-color="#000000" stop-opacity="0"/><stop offset="1" stop-color="#000000"/></radialGradient><radialGradient cx="208.74538" cy="121.80929" r="16.96392" gradientUnits="userSpaceOnUse" id="color-46"><stop offset="0" stop-color="#000000" stop-opacity="0"/><stop offset="1" stop-color="#000000"/></radialGradient><radialGradient cx="237.76131" cy="122.49049" r="16.96392" gradientUnits="userSpaceOnUse" id="color-47"><stop offset="0" stop-color="#000000" stop-opacity="0"/><stop offset="1" stop-color="#000000"/></radialGradient><radialGradient cx="224.44553" cy="146.61593" r="22.98338" gradientUnits="userSpaceOnUse" id="color-48"><stop offset="0" stop-color="#000000" stop-opacity="0"/><stop offset="1" stop-color="#000000"/></radialGradient><radialGradient cx="143.03249" cy="264.57555" r="35.69274" gradientUnits="userSpaceOnUse" id="color-49"><stop offset="0" stop-color="#000000" stop-opacity="0"/><stop offset="1" stop-color="#000000"/></radialGradient><radialGradient cx="224.34311" cy="205.82557" r="43.10644" gradientUnits="userSpaceOnUse" id="color-50"><stop offset="0" stop-color="#000000" stop-opacity="0"/><stop offset="1" stop-color="#000000"/></radialGradient></defs><g transform="translate(-66.45729,-27.5864)"><g data-paper-data="{&quot;isPaintingLayer&quot;:true}" fill-rule="nonzero" stroke-linejoin="miter" stroke-miterlimit="10" stroke-dasharray="" stroke-dashoffset="0" style="mix-blend-mode: normal"><g><path d="M232.75152,201.4503c-4.59631,-11.76179 -7.7217,-19.61523 -3.61582,-22.5243c3.45458,-2.44762 2.93386,4.14041 11.38467,9.07111c18.05097,10.53197 52.18781,31.10673 78.69406,63.71512c38.91553,47.87447 81.06363,40.69233 70.23005,48.36808c-10.83358,7.67575 -70.54639,27.30273 -109.46192,-20.57173c-24.16671,-29.73027 -39.69975,-58.78593 -47.23105,-78.05826z" data-paper-data="{&quot;index&quot;:null}" fill="url(#color-1)" stroke="#000000" stroke-width="0.5" stroke-linecap="butt"/><path d="M177.8962,264.18179c-38.91553,47.87447 -98.62834,28.24748 -109.46192,20.57173c-10.83358,-7.67575 31.31452,-0.49361 70.23005,-48.36808c26.50625,-32.60838 60.64309,-53.18314 78.69406,-63.71511c8.45081,-4.93069 7.9301,-11.51873 11.38468,-9.07111c4.10588,2.90907 0.98048,10.76251 -3.61582,22.5243c-7.53129,19.27234 -23.06433,48.328 -47.23105,78.05826z" fill="url(#color-2)" stroke="#000000" stroke-width="0.5" stroke-linecap="butt"/><path d="M276.51849,118.97156c0,21.9417 -23.46795,39.72895 -52.41714,39.72895c-28.94917,0 -52.41714,-17.78725 -52.41714,-39.72895c0,-21.94169 23.46795,-39.72895 52.41714,-39.72895c28.94917,0 52.41714,17.78725 52.41714,39.72895z" fill="url(#color-3)" stroke="#000000" stroke-width="1.5" stroke-linecap="butt"/><path d="M239.41503,165.8973c-2.33557,0.98548 -12.2112,6.11576 -15.21652,6.11576c-4.27724,0 -11.78964,-4.9878 -14.49441,-6.84561c-1.16607,-0.80094 1.42013,-4.31203 1.42511,-7.93951c0.00558,-4.05737 -2.46327,-8.26035 -1.84178,-8.97938c2.52644,-2.92294 10.82409,-0.51817 16.40673,-0.51817c5.46219,0 11.52264,-0.29748 14.09241,2.52205c0.62475,0.68548 -1.49705,3.53541 -1.22228,6.97044c0.28836,3.60492 2.91148,7.80489 0.8507,8.67442z" fill="url(#color-4)" stroke="#000000" stroke-width="1.5" stroke-linecap="butt"/><path d="M196.80082,349.87995l-1.2033,-46.96396l1.9146,-58.4003h30.48485l-3.69574,58.11908l-6.56748,47.24519z" fill="url(#color-5)" stroke="#000000" stroke-width="1.5" stroke-linecap="butt"/><path d="M235.14096,349.46064l-6.56748,-47.24519l-3.69574,-58.11908h30.48485l1.9146,58.4003l-1.2033,46.96396z" data-paper-data="{&quot;index&quot;:null}" fill="url(#color-6)" stroke="#000000" stroke-width="1.5" stroke-linecap="butt"/><path d="M198.72634,249.12607l-0.20029,-64.28031c0,0 15.22231,-6.6555 28.24138,-6.82399c13.01908,-0.16849 23.96853,3.37923 26.37205,4.47443c2.30337,1.01096 3.0711,68.48329 3.0711,68.48329c0,0 -17.1251,2.35891 -28.74212,2.27467c-11.81731,-0.16849 -28.74212,-4.1281 -28.74212,-4.1281z" fill="url(#color-7)" stroke="#000000" stroke-width="1.5" stroke-linecap="butt"/><path d="M188.99225,220.08746l-1.24874,-44.32642l1.87311,43.77919" fill="url(#color-8)" stroke="#000000" stroke-width="4" stroke-linecap="round"/><path d="M277.7361,216.67126c0,16.14202 -28.73886,5.39102 -53.72405,5.39102c-24.98518,0 -48.60534,7.50975 -48.60534,-8.63227c0,-7.00375 6.78357,-37.84627 13.14159,-42.88008c5.86606,-4.64432 11.52797,-6.19211 22.35113,-6.70036c1.05995,-0.04978 1.59553,-0.12135 1.59553,-0.12135c0,0 6.60219,5.70932 11.51711,5.75357c4.91491,0.04424 10.87917,-4.38997 10.87917,-4.38997c0,0 1.78988,-1.29394 3.07153,-1.17791c9.85697,0.89223 20.16462,3.25752 25.67187,7.68298c6.23323,5.00882 13.62565,35.65196 13.62565,42.57909z" fill="url(#color-9)" stroke="#000000" stroke-width="1.5" stroke-linecap="butt"/><path d="M249.84029,229.04706c-1.55602,0 -2.87017,-0.91432 -3.29092,-2.16769c-3.40039,0.25431 -6.87532,0.2661 -9.99828,-0.12773c-2.10425,-0.26537 -4.04158,-1.21312 -6.13635,-1.53156c-2.4962,-0.37947 -6.70023,-0.37947 -9.19643,0c-2.82783,0.42989 -5.59641,1.79052 -8.42982,2.24389c-5.72447,0.91595 -5.83634,0.81674 -10.1213,0.82549c-0.00547,0.00002 -0.01096,0.00004 -0.01644,0.00004c-0.43376,0 -0.84874,-0.07105 -1.23079,-0.2007c-0.98451,-0.29535 -2.20117,-1.02533 -2.20117,-2.82959c0,-1.80426 1.21666,-2.53424 2.20117,-2.82959c0.25897,-0.08787 0.53304,-0.14882 0.81786,-0.17899c0.58983,-0.91772 1.70648,-1.53686 2.98692,-1.53686c0.62511,0 1.21118,0.14757 1.71598,0.4054c0.5048,-0.25783 1.09087,-0.4054 1.71598,-0.4054c0.93879,0 1.78953,0.33282 2.40915,0.87211c0.07127,-0.01142 0.14358,-0.02305 0.21697,-0.03487c2.96556,-0.47793 5.85853,-1.885 8.83602,-2.31324c3.15939,-0.45441 8.23599,-0.45441 11.39538,0c2.01207,0.28939 3.85743,1.24408 5.87554,1.49872c1.76243,0.22237 -0.33815,-3.45125 1.60695,-3.49023c3.29232,-0.06599 10.69133,3.29396 13.6025,2.7688l1.53106,-0.05884c0,0 3.43197,0 3.43197,3.03029c0,3.03029 -3.43197,3.03029 -3.43197,3.03029l-0.18492,-0.05884c-0.22248,0.03857 -0.44707,0.07649 -0.67362,0.11371c-0.03314,1.64826 -1.55675,2.97542 -3.43142,2.97542z" fill="url(#color-10)" stroke="#000000" stroke-width="0" stroke-linecap="butt"/><path d="M187.41075,205.13748c0,0 -1.45597,-7.40799 -1.64012,-10.86951c-0.1684,-3.16585 0.57822,-9.0919 0.57822,-9.0919" fill="url(#color-11)" stroke="#000000" stroke-width="3.5" stroke-linecap="round"/><path d="M198.93275,217.43095l-1.14398,5.303" fill="url(#color-12)" stroke="#000000" stroke-width="1.5" stroke-linecap="round"/><path d="M267.26319,186.43868c0,0 0.74663,5.92605 0.57823,9.09191c-0.18414,3.46152 -1.64012,10.86951 -1.64012,10.86951" fill="url(#color-13)" stroke="#000000" stroke-width="3.5" stroke-linecap="round"/><path d="M272.84145,128.70892c0,6.88256 -4.48194,12.46197 -10.0107,12.46197c-5.52876,0 -10.0107,-5.57941 -10.0107,-12.46197c0,-6.88256 4.48194,-12.46197 10.0107,-12.46197c5.52876,0 10.0107,5.57941 10.0107,12.46197z" fill="url(#color-14)" stroke="#000000" stroke-width="1.5" stroke-linecap="butt"/><path d="M196.77136,129.40731c0,6.88256 -4.48194,12.46197 -10.0107,12.46197c-5.52876,0 -10.0107,-5.57941 -10.0107,-12.46197c0,-6.88256 4.48194,-12.46197 10.0107,-12.46197c5.52876,0 10.0107,5.57941 10.0107,12.46197z" fill="url(#color-15)" stroke="#000000" stroke-width="1.5" stroke-linecap="butt"/><path d="M236.57463,165.13973c-1.85094,0.98548 -9.67735,6.11576 -12.05905,6.11576c-3.38971,0 -9.34327,-4.9878 -11.48678,-6.84561c-0.92411,-0.80094 1.12545,-4.31203 1.1294,-7.93951c0.00443,-4.05737 -1.95214,-8.26035 -1.45961,-8.97938c2.0022,-2.92294 8.57806,-0.51817 13.0023,-0.51817c4.32877,0 9.13166,-0.29748 11.1682,2.52205c0.49512,0.68548 -1.1864,3.53541 -0.96865,6.97044c0.22853,3.60492 2.30733,7.80489 0.67418,8.67442z" fill="url(#color-16)" stroke="#000000" stroke-width="1.5" stroke-linecap="butt"/><path d="M235.50858,153.6476c0,2.83905 -4.68771,5.14055 -10.47032,5.14055c-5.7826,0 -10.47032,-2.3015 -10.47032,-5.14055c0,-2.83905 4.68771,-5.14055 10.47032,-5.14055c5.7826,0 10.47032,2.3015 10.47032,5.14055z" fill="url(#color-17)" stroke="#000000" stroke-width="0" stroke-linecap="butt"/><path d="M269.22556,126.73667c0,15.56117 -19.72262,28.17599 -44.05171,28.17599c-24.32909,0 -44.05171,-12.61482 -44.05171,-28.17599c0,-15.56117 19.72262,-28.17599 44.05171,-28.17599c24.32909,0 44.05171,12.61482 44.05171,28.17599z" fill="url(#color-18)" stroke="#000000" stroke-width="1.5" stroke-linecap="butt"/><path d="M268.1184,122.62338c0,7.32193 -19.4949,13.2575 -43.54309,13.2575c-24.04819,0 -43.54309,-5.93558 -43.54309,-13.2575c0,-7.32193 19.4949,-13.2575 43.54309,-13.2575c24.04819,0 43.54309,5.93558 43.54309,13.2575z" fill="url(#color-19)" stroke="#000000" stroke-width="0" stroke-linecap="butt"/><path d="M232.10666,132.36775c0,1.43869 -8.72163,7.17582 -7.75502,9.34555c2.23621,5.01951 19.42208,6.56998 16.89157,8.89164c-4.31306,3.95706 -25.60555,0.66583 -32.66715,0.66583c-12.99559,0 -23.5306,-8.46317 -23.5306,-18.90302c0,-10.43985 9.44056,-35.93276 22.43615,-35.93276c11.19629,0 4.59703,25.73425 7.20197,37.65022c0.41864,1.91497 17.42307,-3.16291 17.42307,-1.71747z" fill="url(#color-20)" stroke="#000000" stroke-width="0" stroke-linecap="butt"/><path d="M269.41058,111.15134c0,3.94816 2.2753,8.88997 0.27396,12.35443c-0.80015,1.38511 -0.68103,4.85957 -1.20248,6.80821c-1.00542,3.75729 -2.32431,5.94181 -2.70732,5.28332c-1.04643,-1.79908 -1.80178,-17.04583 -14.0152,-17.04583c-15.98128,0 -42.29534,9.55646 -59.913,7.26468c-2.05498,-0.26732 -4.27088,10.0767 -7.24103,9.86705c-3.54434,-0.25018 -6.79428,-11.9106 -8.63076,-13.40203c-3.90599,-3.17215 -5.20227,-17.84036 -5.20227,-21.06158c0,-4.01642 2.39608,4.98602 4.79949,2.04357c0.51449,-0.62988 -1.78537,-9.07516 -1.19109,-9.75036c0.5358,-0.60876 0.1427,-2.06345 0.86097,-3.63765c2.13206,-4.67278 5.9462,-11.91972 8.41567,-13.31762c3.24769,-1.83845 15.93622,10.26983 19.79175,10.60404c0.50852,0.04408 -5.46792,-11.19478 -4.95087,-11.12854c7.13538,0.91417 19.73291,7.65994 27.8229,7.65994c19.74367,0 42.02865,9.94528 46.16759,20.69367c1.0602,2.75323 -3.07832,3.3214 -3.07832,6.76472z" fill="url(#color-21)" stroke="#000000" stroke-width="1.5" stroke-linecap="butt"/><path d="M236.44984,170.37755c-6.85683,2.63678 -13.40681,3.34929 -14.62977,1.59144c-1.22298,-1.75786 3.34416,-5.32041 10.20099,-7.95719c6.85683,-2.63678 13.40681,-3.34929 14.62977,-1.59144c1.22298,1.75786 -3.34416,5.32041 -10.20097,7.95718z" fill="url(#color-22)" stroke="#000000" stroke-width="1.5" stroke-linecap="butt"/><path d="M204.84514,162.34542c1.22298,-1.75786 7.77296,-1.04535 14.62977,1.59144c6.85683,2.63678 11.42395,6.19934 10.20099,7.95718c-1.22298,1.75786 -7.77296,1.04535 -14.62977,-1.59144c-6.85683,-2.63678 -11.42395,-6.19934 -10.20097,-7.95719z" data-paper-data="{&quot;index&quot;:null}" fill="url(#color-23)" stroke="#000000" stroke-width="1.5" stroke-linecap="butt"/><path d="M219.68351,192.43904c-0.54564,0.40566 -1.66353,-4.44781 -1.86168,-9.00348c-0.1595,-3.66704 0.53791,-7.14113 0.61455,-7.5241c0.37217,-1.85961 0.55324,-3.6698 1.5258,-5.37886c0,0 0.54268,-0.95363 1.82537,-0.55017c1.28269,0.40346 0.74002,1.35709 0.74002,1.35709c-0.86458,1.51931 -0.87452,3.20091 -1.20832,4.8554c-0.06115,0.30307 -0.53715,3.78254 -0.46173,7.42532c0.07043,3.40129 0.68496,6.94494 0.83721,8.17824c0.09273,0.75122 -1.7874,0.47414 -2.01122,0.64055z" fill="url(#color-24)" stroke="#000000" stroke-width="0.5" stroke-linecap="butt"/><path d="M235.1584,194.59933c-1.37877,0.14644 -1.57574,-0.87862 -1.57574,-0.87862l-0.13345,-0.71c-0.36681,-3.57415 0.10005,-7.1719 -0.2477,-10.75295c-0.36903,-3.80022 -1.11605,-7.63634 -1.84274,-11.40873c0,0 -0.19696,-1.02505 1.18179,-1.1715c1.37877,-0.14644 1.57574,0.87862 1.57574,0.87862c0.73245,3.82097 1.49756,7.70558 1.86374,11.55479c0.34035,3.57767 -0.12595,7.17188 0.2465,10.74091l0.11366,0.57596c0,0 0.19696,1.02505 -1.18179,1.1715z" fill="url(#color-25)" stroke="#000000" stroke-width="0.5" stroke-linecap="butt"/><g stroke="#000000" stroke-width="1.5" stroke-linecap="butt"><path d="M199.7512,190.54561c0.32215,2.2269 -0.25451,3.69338 -0.31311,5.76412c-0.25315,8.9453 -0.68475,17.55271 -1.62173,22.56433c-0.52369,2.80108 -0.15947,6.40274 -2.80066,6.70062c-5.80544,0.65475 -13.28225,4.16294 -18.75423,-3.03721c-2.07121,-2.72535 -1.51396,-10.12919 -1.32462,-15.79554c0.03944,-1.18053 0.72757,-1.33126 0.59275,-2.26323c-1.43539,-9.92231 0.84106,-22.71957 5.58325,-30.56353c3.48946,-5.77185 11.2713,-7.10521 14.85784,-7.50971c8.46066,-0.9542 1.28891,6.9167 3.78051,24.14016z" fill="url(#color-26)"/><g data-paper-data="{&quot;index&quot;:null}"><path d="M180.67715,249.93041l-6.38825,-28.24361c0,0 7.00505,-1.70502 11.0607,-2.38712c1.78732,-0.315 3.67156,-0.16848 5.41169,0.17862c3.74946,0.74791 6.82983,2.42706 6.82983,2.42706l-3.04555,28.86737z" fill="url(#color-27)"/><path d="M195.33379,270.79716c-3.17524,0.52041 -8.3792,-1.51572 -8.3792,-1.51572c0,0 -7.75712,-4.45449 -9.38582,-8.4863c-1.6574,-4.34037 3.19074,-11.90504 3.19074,-11.90504l12.71051,-1.97878c0,0 12.37545,4.04564 13.12754,10.20517c0.43632,2.76531 -1.70737,8.59885 -1.70737,8.59885c0,0 -4.08056,2.33955 -5.40309,1.59909c-1.32253,-0.74045 -0.80949,-6.77664 -3.08517,-6.21223c-2.97811,0.71434 2.30423,9.36848 -1.06814,9.69495z" fill="url(#color-28)"/></g></g><path d="M198.03437,220.99641c-0.24125,3.0228 -3.66472,2.80978 -3.66472,2.80978l-3.55034,-0.89404c-0.56478,-0.4705 -2.24403,-2.21651 -3.32004,-2.09536c-1.85893,0.20931 -4.59839,2.34715 -6.24162,3.22625c-0.36887,0.2051 -0.78749,0.35079 -1.24086,0.41991c-0.99702,0.18744 -2.43705,0.1204 -3.47649,-1.34998c-0.04878,-0.06708 -0.09468,-0.13606 -0.13755,-0.20683c-0.94474,-1.51316 -0.3119,-2.65495 0.35698,-3.3323c0.27225,-0.29788 0.60822,-0.5507 0.9926,-0.74101c2.63758,-1.38206 6.14245,-3.92395 9.26585,-4.06172c3.56827,-0.1574 6.07787,1.75644 8.4749,3.7025l-0.64094,-0.71302c0,0 3.42348,0.21301 3.18223,3.2358z" fill="url(#color-29)" stroke="#000000" stroke-width="0" stroke-linecap="butt"/><g stroke="#000000" stroke-width="1.5" stroke-linecap="butt"><path d="M255.03696,168.56458c3.59577,0.33468 11.40896,1.51644 15.0415,7.21905c4.93663,7.74987 7.53164,20.49978 6.34401,30.44758c-0.11155,0.93437 0.58017,1.07168 0.64905,2.25117c0.33059,5.66129 1.07232,13.05252 -0.93043,15.81746c-5.29111,7.30479 -12.85361,3.94279 -18.67395,3.40106c-2.64798,-0.24646 -2.37366,-3.85434 -2.96707,-6.64454c-1.06172,-4.99219 -1.70784,-13.58912 -2.18399,-22.52733c-0.11022,-2.0691 -0.72331,-3.52401 -0.45677,-5.75663c2.06151,-17.26773 -5.30477,-24.99731 3.17764,-24.20781z" fill="url(#color-30)"/><g data-paper-data="{&quot;index&quot;:null}"><path d="M258.56549,252.88371l-3.76463,-28.80117c0,0 3.03775,-1.73864 6.76765,-2.55924c1.73105,-0.38085 3.61118,-0.56396 5.40592,-0.28378c4.07167,0.6031 11.11753,2.17153 11.11753,2.17153l-5.68244,28.36095z" fill="url(#color-31)"/><path d="M258.27679,272.91859c-3.37969,-0.26082 1.68556,-9.01555 -1.30963,-9.67183c-2.28921,-0.52004 -1.62578,5.50471 -2.92952,6.27069c-1.30374,0.76599 -5.44164,-1.49367 -5.44164,-1.49367c0,0 -2.28864,-5.79045 -1.92138,-8.56358c0.5983,-6.17264 12.86988,-10.45788 12.86988,-10.45788l12.75677,1.7312c0,0 5.03559,7.46859 3.48682,11.84012c-1.52777,4.06249 -9.17193,8.66671 -9.17193,8.66671c0,0 -5.15193,2.13681 -8.33938,1.67825z" fill="url(#color-32)"/></g></g><path d="M257.43581,219.88554l-0.623,0.7253c2.34793,-1.99219 4.80919,-3.95436 8.38053,-3.86636c3.12607,0.07702 6.69347,2.55016 9.36488,3.88061c0.38903,0.18278 0.73122,0.42902 1.01083,0.72152c0.68561,0.66418 1.34676,1.7934 0.43998,3.32455c-0.04109,0.07159 -0.08526,0.14144 -0.13234,0.20945c-1.00252,1.49022 -2.44053,1.58525 -3.44199,1.41725c-0.45498,-0.0603 -0.87714,-0.1978 -1.25103,-0.39569c-1.66474,-0.84695 -4.45686,-2.93101 -6.32056,-3.10413c-1.07877,-0.10022 -2.71407,1.67803 -3.26698,2.1594l-3.52718,0.96285c0,0 -3.41734,0.27951 -3.7339,-2.73785c-0.31657,-3.01737 3.10077,-3.29688 3.10077,-3.29688z" fill="url(#color-33)" stroke="#000000" stroke-width="0" stroke-linecap="butt"/><path d="M219.64185,346.47065c0,5.85753 -5.18584,10.606 -11.58289,10.606c-6.39705,0 -11.58289,-4.74847 -11.58289,-10.606c0,-5.85753 5.18584,-10.606 11.58289,-10.606c6.39705,0 11.58289,4.74847 11.58289,10.606z" fill="url(#color-34)" stroke="#000000" stroke-width="3.5" stroke-linecap="butt"/><path d="M256.53551,346.47065c0,5.85753 -5.18584,10.606 -11.58289,10.606c-6.39706,0 -11.58289,-4.74847 -11.58289,-10.606c0,-5.85753 5.18584,-10.606 11.58289,-10.606c6.39706,0 11.58289,4.74847 11.58289,10.606z" fill="url(#color-35)" stroke="#000000" stroke-width="3.5" stroke-linecap="butt"/><path d="M234.22772,357.45544v-7.57572h23.59478v7.57572z" fill="url(#color-36)" stroke="#000000" stroke-width="3.5" stroke-linecap="butt"/><path d="M196.47607,357.07665v-7.57572h23.47778v7.57572z" fill="url(#color-37)" stroke="#000000" stroke-width="3.5" stroke-linecap="butt"/><path d="M214.9229,337.94798c0,1.15058 -2.88102,2.08332 -6.43494,2.08332c-3.55392,0 -6.43494,-0.93274 -6.43494,-2.08332c0,-1.15058 2.88102,-2.08332 6.43494,-2.08332c3.55392,0 6.43494,0.93274 6.43494,2.08332z" fill="url(#color-38)" stroke="#000000" stroke-width="3.5" stroke-linecap="butt"/><path d="M250.95856,338.32676c0,1.15058 -2.88102,2.08332 -6.43494,2.08332c-3.55392,0 -6.43494,-0.93274 -6.43494,-2.08332c0,-1.15058 2.88102,-2.08332 6.43494,-2.08332c3.55392,0 6.43494,0.93274 6.43494,2.08332z" fill="url(#color-39)" stroke="#000000" stroke-width="3.5" stroke-linecap="butt"/><path d="M214.40811,226.75159l13.21308,-5.45451" fill="url(#color-40)" stroke="#000000" stroke-width="0.5" stroke-linecap="round"/><path d="M225.96119,221.38497c0.06352,-0.10395 0.63709,-0.97664 1.72074,-0.49823c1.15112,0.50819 0.57556,1.52458 0.57556,1.52458l-0.6977,0.78819c-2.08875,1.0242 -4.32,2.55026 -6.53506,3.25662c-0.90686,0.28919 -2.02876,0.12198 -2.80356,0.6287c-0.88454,0.57851 -1.68676,1.31798 -2.71971,1.65388c0,0 -1.22094,0.35935 -1.62792,-0.71869c-0.40698,-1.07804 0.81396,-1.4374 0.81396,-1.4374c0.83623,-0.20475 1.36057,-0.95463 2.08505,-1.37641c1.2283,-0.71509 3.061,-0.5289 4.34178,-1.24169c1.60441,-0.8929 3.18179,-1.75186 4.84685,-2.57956z" fill="url(#color-41)" stroke="#000000" stroke-width="0" stroke-linecap="butt"/><path d="M221.76708,210.89891c-0.40698,-1.07804 0.81396,-1.4374 0.81396,-1.4374l1.12443,-0.32741c6.35223,-1.34427 9.51869,-5.04127 13.16434,-9.55801c0,0 0.74805,-0.92469 1.79532,-0.26419c1.04726,0.66049 0.29921,1.58519 0.29921,1.58519c-4.06001,5.00642 -7.6641,8.85349 -14.6346,10.44188l-0.93474,0.27864c0,0 -1.22094,0.35935 -1.62792,-0.71869z" fill="url(#color-42)" stroke="#000000" stroke-width="0" stroke-linecap="butt"/><path d="M247.80903,240.94501c-0.28777,-0.50819 0.28777,-0.76229 0.28777,-0.76229l0.25831,-0.10652c2.42541,-1.51597 3.96242,-3.57023 6.33571,-5.14283c0,0 0.51479,-0.34091 0.90089,0.11363c0.3861,0.45454 -0.1287,0.79545 -0.1287,0.79545c-2.37886,1.5744 -3.92415,3.62585 -6.36258,5.16015l-0.42808,0.19651c0,0 -0.57556,0.2541 -0.86333,-0.2541z" fill="url(#color-43)" stroke="#000000" stroke-width="0.5" stroke-linecap="butt"/><path d="M183.06636,185.18774c-0.28777,0.50819 -0.86333,0.2541 -0.86333,0.2541l-0.21149,-0.10849c-1.61343,-0.38118 -3.78194,-1.87127 -4.24338,-3.29219c0,0 -0.15607,-0.55121 0.46822,-0.68902c0.62428,-0.1378 0.78035,0.41341 0.78035,0.41341c0.19854,0.9407 2.25228,2.25622 3.30695,2.46536l0.4749,0.19454c0,0 0.57556,0.2541 0.28777,0.76229z" fill="url(#color-44)" stroke="#000000" stroke-width="0.5" stroke-linecap="butt"/><path d="M183.99229,209.17594c0,0.56817 -0.64349,0.56817 -0.64349,0.56817l-0.63098,-0.05999c-2.50308,-1.1829 -5.2948,-1.4517 -6.80852,-4.04196c0,0 -0.28777,-0.50819 0.28777,-0.76229c0.57556,-0.2541 0.86333,0.2541 0.86333,0.2541c1.24022,2.28136 3.99562,2.59203 6.23296,3.53376l0.05542,-0.05999c0,0 0.64349,0 0.64349,0.56817z" fill="url(#color-45)" stroke="#000000" stroke-width="0.5" stroke-linecap="butt"/><path d="M211.67699,121.8093c0,1.60975 0.36022,3.16341 0.33763,4.6271c-0.10013,6.48956 -0.91851,11.21055 -2.89134,11.21055c-2.41779,0 -3.64815,-7.09076 -3.64815,-15.83766c0,-8.74691 1.23037,-15.83766 3.64815,-15.83766c2.41779,0 2.55372,7.09076 2.55372,15.83766z" fill="url(#color-46)" stroke="none" stroke-width="NaN" stroke-linecap="butt"/><path d="M240.86224,123.17168c0,8.74691 -0.50074,15.15647 -2.91852,15.15647c-2.41779,0 -3.28334,-7.09077 -3.28334,-15.83766c0,-8.74691 0.86555,-15.83766 3.28334,-15.83766c2.41779,0 2.91852,7.77195 2.91852,16.51886z" fill="url(#color-47)" stroke="none" stroke-width="NaN" stroke-linecap="butt"/><path d="M247.42891,144.28856c0,1.41079 -12.13613,6.6416 -21.70653,6.6416c-9.5704,0 -24.26023,-6.93379 -24.26023,-8.34457c0,-1.41079 13.9602,2.89505 23.5306,2.89505c9.5704,0 22.43616,-2.60287 22.43616,-1.19209z" fill="url(#color-48)" stroke="none" stroke-width="0" stroke-linecap="butt"/><path d="M134.15301,274.41031c2.60494,-11.91597 -3.99431,-37.65023 7.20197,-37.65023c7.16685,0 32.95254,5.70969 36.96983,14.41566c3.26723,7.08047 -14.53368,16.83467 -14.53368,21.51711c0,6.77147 -9.53955,10.66777 -16.20049,14.00603c-3.6085,1.80848 -0.93962,2.85342 -5.50604,2.85342c-7.06159,0 -30.17817,5.3348 -34.49123,1.37774c-2.53051,-2.32165 14.65536,-3.87213 16.89157,-8.89164c0.96662,-2.16973 -7.75502,-7.90686 -7.75502,-9.34555c0,-1.44545 17.00445,3.63243 17.42308,1.71747z" data-paper-data="{&quot;index&quot;:null}" fill="url(#color-49)" stroke="#000000" stroke-width="0" stroke-linecap="butt"/><path d="M200.27269,224.10175c0,-1.43869 1.42532,-26.93033 0.4587,-29.10005c-2.23621,-5.01951 -2.27575,-26.66509 0.25477,-28.98673c4.31306,-3.95706 5.17589,20.45105 12.23748,20.45105c4.56642,0 1.89754,1.04495 5.50604,2.85342c1.97498,0.9898 4.20304,2.02866 6.36046,3.17698c0.52555,0.27973 -9.16792,23.72642 -8.65542,24.02002c4.4791,2.56601 18.49543,-17.46559 18.49543,-13.19097c0,1.5699 -12.59165,20.05846 -10.0546,22.47666c5.03008,4.79444 26.76009,-5.66612 24.58827,-0.95955c-4.01729,8.70595 -38.19373,21.22755 -45.36058,21.22755c-11.19629,0 3.79372,-32.54615 1.18879,-44.46212c-0.41864,-1.91497 -5.01935,23.93921 -5.01935,22.49376z" data-paper-data="{&quot;index&quot;:null}" fill="url(#color-50)" stroke="#000000" stroke-width="0" stroke-linecap="butt"/></g><text transform="translate(182.5,49) scale(0.96157,0.58667)" font-size="40" xml:space="preserve" fill="#000000" fill-rule="nonzero" stroke="none" stroke-width="1" stroke-linecap="butt" stroke-linejoin="miter" stroke-miterlimit="10" stroke-dasharray="" stroke-dashoffset="0" font-family="Serif" font-weight="normal" text-anchor="start" style="mix-blend-mode: normal"><tspan x="0" dy="0">Emyt</tspan></text><g><path d="M231.42255,202.77637c-4.19967,-11.51103 -7.05535,-19.19703 -3.30379,-22.04408c3.15646,-2.39544 2.68068,4.05214 10.40222,8.87771c16.49324,10.30743 47.6842,30.44353 71.90307,62.3567c35.55727,46.85377 74.06815,39.82476 64.16947,47.33686c-9.89868,7.5121 -64.45851,26.72063 -100.01578,-20.13314c-22.08122,-29.09641 -36.27382,-57.5326 -43.15519,-76.39404z" data-paper-data="{&quot;index&quot;:null}" fill="#140047" stroke="#000000" stroke-width="0.5" stroke-linecap="butt"/><path d="M181.30103,264.17041c-35.55727,46.85377 -90.1171,27.64524 -100.01578,20.13314c-9.89868,-7.5121 28.6122,-0.48309 64.16947,-47.33686c24.21886,-31.91316 55.40983,-52.04926 71.90307,-62.35669c7.72154,-4.82557 7.24576,-11.27315 10.40223,-8.87771c3.75156,2.84705 0.89587,10.53305 -3.30379,22.04408c-6.88137,18.86145 -21.07397,47.29764 -43.15519,76.39404z" fill="#140047" stroke="#000000" stroke-width="0.5" stroke-linecap="butt"/><path d="M271.4126,122.05609c0,21.4739 -21.44276,38.88192 -47.89374,38.88192c-26.45097,0 -47.89374,-17.40802 -47.89374,-38.88192c0,-21.47389 21.44276,-38.88192 47.89374,-38.88192c26.45097,0 47.89374,17.40802 47.89374,38.88192z" fill="#140047" stroke="#000000" stroke-width="1.5" stroke-linecap="butt"/><path d="M237.51102,167.98137c-2.13402,0.96447 -11.15742,5.98537 -13.90339,5.98537c-3.90813,0 -10.77224,-4.88146 -13.2436,-6.69966c-1.06544,-0.78386 1.29758,-4.2201 1.30213,-7.77024c0.0051,-3.97087 -2.2507,-8.08424 -1.68284,-8.78794c2.30842,-2.86062 9.89001,-0.50712 14.99089,-0.50712c4.99082,0 10.52828,-0.29114 12.87629,2.46828c0.57084,0.67087 -1.36786,3.46003 -1.1168,6.82183c0.26348,3.52806 2.66023,7.63849 0.77729,8.48948z" fill="#140047" stroke="#000000" stroke-width="1.5" stroke-linecap="butt"/><path d="M198.57425,348.04146l-1.09946,-45.96268l1.74938,-57.15519h27.85413l-3.37681,56.87997l-6.00073,46.23791z" fill="#140047" stroke="#000000" stroke-width="1.5" stroke-linecap="butt"/><path d="M233.60579,347.63109l-6.00073,-46.23791l-3.37681,-56.87997h27.85413l1.74938,57.15519l-1.09946,45.96268z" data-paper-data="{&quot;index&quot;:null}" fill="#140047" stroke="#000000" stroke-width="1.5" stroke-linecap="butt"/><path d="M200.33361,249.43568l-0.18301,-62.90984c0,0 13.90868,-6.5136 25.80426,-6.6785c11.89558,-0.1649 21.90014,3.30718 24.09624,4.37903c2.1046,0.98941 2.80608,67.02321 2.80608,67.02321c0,0 -15.64727,2.30862 -26.26179,2.22617c-10.79752,-0.1649 -26.26179,-4.04009 -26.26179,-4.04009z" fill="#140047" stroke="#000000" stroke-width="1.5" stroke-linecap="butt"/><path d="M191.43953,221.01618l-1.14098,-43.38137l1.71147,42.84581" fill="#140047" stroke="#000000" stroke-width="4" stroke-linecap="round"/><path d="M272.52513,217.67281c0,15.79787 -26.25881,5.27608 -49.08787,5.27608c-22.82906,0 -44.41089,7.34964 -44.41089,-8.44823c0,-6.85443 6.19817,-37.03938 12.00752,-41.96587c5.35984,-4.5453 10.53315,-6.06009 20.42231,-6.55751c0.96848,-0.04872 1.45784,-0.11876 1.45784,-0.11876c0,0 6.03245,5.5876 10.52323,5.6309c4.49077,0.0433 9.94034,-4.29637 9.94034,-4.29637c0,0 1.63542,-1.26635 2.80647,-1.1528c9.00635,0.87321 18.42449,3.18807 23.45649,7.51918c5.69533,4.90203 12.44981,34.89185 12.44981,41.67129z" fill="#140047" stroke="#000000" stroke-width="1.5" stroke-linecap="butt"/><path d="M247.03662,229.78476c-1.42174,0 -2.62249,-0.89483 -3.00693,-2.12147c-3.10695,0.24889 -6.28201,0.26043 -9.13547,-0.12501c-1.92266,-0.25971 -3.69281,-1.18726 -5.60681,-1.49891c-2.28079,-0.37138 -6.12203,-0.37138 -8.40281,0c-2.5838,0.42072 -5.11346,1.75235 -7.70236,2.19605c-5.23047,0.89642 -5.33269,0.79933 -9.24787,0.80789c-0.005,0.00002 -0.01001,0.00004 -0.01502,0.00004c-0.39633,0 -0.7755,-0.06954 -1.12458,-0.19642c-0.89955,-0.28905 -2.01122,-1.00347 -2.01122,-2.76926c0,-1.76579 1.11167,-2.48021 2.01122,-2.76926c0.23662,-0.086 0.48704,-0.14565 0.74728,-0.17517c0.53893,-0.89815 1.55922,-1.50409 2.72916,-1.50409c0.57117,0 1.10666,0.14442 1.5679,0.39676c0.46124,-0.25233 0.99673,-0.39676 1.5679,-0.39676c0.85778,0 1.6351,0.32572 2.20125,0.85352c0.06512,-0.01118 0.13119,-0.02256 0.19825,-0.03413c2.70964,-0.46774 5.35296,-1.84481 8.07351,-2.26392c2.88675,-0.44472 7.52526,-0.44472 10.412,0c1.83844,0.28322 3.52455,1.21756 5.3685,1.46677c1.61034,0.21763 -0.30897,-3.37767 1.46828,-3.41582c3.00821,-0.06458 9.76871,3.22373 12.42866,2.70977l1.39894,-0.05759c0,0 3.1358,0 3.1358,2.96568c0,2.96568 -3.1358,2.96568 -3.1358,2.96568l-0.16896,-0.05759c-0.20328,0.03775 -0.40849,0.07486 -0.61549,0.11129c-0.03028,1.61312 -1.42241,2.91198 -3.1353,2.91198z" fill="#140047" stroke="#000000" stroke-width="0" stroke-linecap="butt"/><path d="M189.99451,206.38494c0,0 -1.33033,-7.25005 -1.49858,-10.63777c-0.15387,-3.09835 0.52832,-8.89806 0.52832,-8.89806" fill="#140047" stroke="#000000" stroke-width="3.5" stroke-linecap="round"/><path d="M200.52221,218.41631l-1.04526,5.18994" fill="#140047" stroke="#000000" stroke-width="1.5" stroke-linecap="round"/><path d="M262.95599,188.0848c0,0 0.6822,5.79971 0.52833,8.89807c-0.16825,3.38772 -1.49858,10.63777 -1.49858,10.63777" fill="#140047" stroke="#000000" stroke-width="3.5" stroke-linecap="round"/><path d="M268.05287,131.58585c0,6.73582 -4.09517,12.19628 -9.14682,12.19628c-5.05165,0 -9.14682,-5.46046 -9.14682,-12.19628c0,-6.73582 4.09517,-12.19628 9.14682,-12.19628c5.05165,0 9.14682,5.46046 9.14682,12.19628z" fill="#140047" stroke="#000000" stroke-width="1.5" stroke-linecap="butt"/><path d="M198.54734,132.26935c0,6.73582 -4.09517,12.19628 -9.14682,12.19628c-5.05165,0 -9.14682,-5.46046 -9.14682,-12.19628c0,-6.73582 4.09517,-12.19628 9.14682,-12.19628c5.05165,0 9.14682,5.46046 9.14682,12.19628z" fill="#140047" stroke="#000000" stroke-width="1.5" stroke-linecap="butt"/><path d="M234.91574,167.23995c-1.69121,0.96447 -8.84223,5.98537 -11.0184,5.98537c-3.09719,0 -8.53698,-4.88146 -10.49552,-6.69966c-0.84436,-0.78386 1.02833,-4.2201 1.03194,-7.77024c0.00405,-3.97087 -1.78368,-8.08424 -1.33365,-8.78794c1.82942,-2.86062 7.83781,-0.50712 11.88025,-0.50712c3.95521,0 8.34363,-0.29114 10.20443,2.46828c0.45239,0.67087 -1.08402,3.46003 -0.88506,6.82183c0.20881,3.52806 2.10822,7.63849 0.616,8.48948z" fill="#140047" stroke="#000000" stroke-width="1.5" stroke-linecap="butt"/><path d="M233.94168,155.99283c0,2.77852 -4.28318,5.03095 -9.56677,5.03095c-5.28358,0 -9.56677,-2.25243 -9.56677,-5.03095c0,-2.77852 4.28318,-5.03095 9.56677,-5.03095c5.28358,0 9.56677,2.25243 9.56677,5.03095z" fill="#140047" stroke="#000000" stroke-width="0" stroke-linecap="butt"/><path d="M264.74902,129.65565c0,15.2294 -18.02063,27.57527 -40.25022,27.57527c-22.22958,0 -40.25022,-12.34587 -40.25022,-27.57527c0,-15.2294 18.02063,-27.57527 40.25022,-27.57527c22.22958,0 40.25022,12.34587 40.25022,27.57527z" fill="#140047" stroke="#000000" stroke-width="1.5" stroke-linecap="butt"/><path d="M263.7374,125.63006c0,7.16582 -17.81257,12.97485 -39.78549,12.97485c-21.97292,0 -39.78549,-5.80903 -39.78549,-12.97485c0,-7.16582 17.81257,-12.97485 39.78549,-12.97485c21.97292,0 39.78549,5.80903 39.78549,12.97485z" fill="#140047" stroke="#000000" stroke-width="0" stroke-linecap="butt"/><path d="M230.83334,135.16667c0,1.40802 -7.96899,7.02283 -7.08579,9.1463c2.04323,4.91249 17.74603,6.42991 15.43389,8.70207c-3.94086,3.87269 -23.39589,0.65163 -29.8481,0.65163c-11.87412,0 -21.5,-8.28273 -21.5,-18.5c0,-10.21727 8.62588,-35.16666 20.5,-35.16666c10.23009,0 4.20032,25.18559 6.58047,36.84751c0.38251,1.87414 15.91953,-3.09548 15.91953,-1.68085z" fill="#9e0000" stroke="#000000" stroke-width="0" stroke-linecap="butt"/><path d="M264.91807,114.4026c0,3.86398 2.07895,8.70043 0.25032,12.09103c-0.7311,1.35558 -0.62226,4.75596 -1.09871,6.66306c-0.91866,3.67718 -2.12373,5.81513 -2.47369,5.17068c-0.95613,-1.76072 -1.64629,-16.68241 -12.80574,-16.68241c-14.60216,0 -38.64542,9.35271 -54.74274,7.1098c-1.87764,-0.26162 -3.90232,9.86186 -6.61616,9.65668c-3.23848,-0.24485 -6.20796,-11.65666 -7.88596,-13.1163c-3.56892,-3.10452 -4.75333,-17.46 -4.75333,-20.61254c0,-3.93079 2.18931,4.87972 4.38531,2c0.47009,-0.61645 -1.6313,-8.88168 -1.0883,-9.54248c0.48956,-0.59578 0.13039,-2.01946 0.78667,-3.56009c1.94807,-4.57316 5.43307,-11.66559 7.68943,-13.03369c2.96743,-1.79925 14.56099,10.05087 18.0838,10.37796c0.46464,0.04314 -4.99606,-10.9561 -4.52363,-10.89128c6.51962,0.89468 18.03004,7.49663 25.42189,7.49663c18.03987,0 38.40174,9.73324 42.18351,20.25248c0.96871,2.69453 -2.81267,3.25059 -2.81267,6.62049z" fill="#140047" stroke="#000000" stroke-width="1.5" stroke-linecap="butt"/><path d="M234.80172,172.3661c-6.26511,2.58056 -12.24985,3.27788 -13.36728,1.55751c-1.11744,-1.72038 3.05557,-5.20698 9.32068,-7.78754c6.26511,-2.58056 12.24985,-3.27788 13.36728,-1.55751c1.11744,1.72038 -3.05557,5.20698 -9.32067,7.78753z" fill="#140047" stroke="#000000" stroke-width="1.5" stroke-linecap="butt"/><path d="M205.92438,164.50521c1.11744,-1.72038 7.10218,-1.02306 13.36728,1.55751c6.26511,2.58056 10.43811,6.06717 9.32068,7.78753c-1.11744,1.72038 -7.10218,1.02306 -13.36728,-1.55751c-6.26511,-2.58056 -10.43811,-6.06717 -9.32067,-7.78754z" data-paper-data="{&quot;index&quot;:null}" fill="#140047" stroke="#000000" stroke-width="1.5" stroke-linecap="butt"/><path d="M219.48226,193.95723c-0.49855,0.39701 -1.51997,-4.35298 -1.70102,-8.81152c-0.14574,-3.58886 0.49149,-6.98888 0.56152,-7.36368c0.34005,-1.81996 0.5055,-3.59156 1.39413,-5.26418c0,0 0.49585,-0.9333 1.66785,-0.53844c1.172,0.39486 0.67616,1.32816 0.67616,1.32816c-0.78997,1.48692 -0.79905,3.13267 -1.10405,4.75188c-0.05587,0.29661 -0.4908,3.7019 -0.42188,7.26701c0.06435,3.32877 0.62585,6.79687 0.76496,8.00388c0.08473,0.7352 -1.63315,0.46403 -1.83766,0.62689z" fill="#140047" stroke="#000000" stroke-width="0.5" stroke-linecap="butt"/><path d="M233.62172,196.07146c-1.25979,0.14332 -1.43976,-0.85989 -1.43976,-0.85989l-0.12193,-0.69486c-0.33516,-3.49795 0.09142,-7.01899 -0.22632,-10.52369c-0.33718,-3.7192 -1.01974,-7.47353 -1.68372,-11.16549c0,0 -0.17996,-1.0032 1.07981,-1.14652c1.25979,-0.14332 1.43976,0.85989 1.43976,0.85989c0.66924,3.73951 1.36833,7.5413 1.70291,11.30844c0.31098,3.50139 -0.11508,7.01897 0.22523,10.51191l0.10385,0.56368c0,0 0.17996,1.0032 -1.07981,1.14652z" fill="#140047" stroke="#000000" stroke-width="0.5" stroke-linecap="butt"/><g fill="#140047" stroke="#000000" stroke-width="1.5" stroke-linecap="butt"><path d="M201.27003,192.10417c0.29435,2.17942 -0.23255,3.61464 -0.28609,5.64123c-0.2313,8.75458 -0.62566,17.17848 -1.48178,22.08325c-0.4785,2.74136 -0.14571,6.26623 -2.55897,6.55776c-5.30445,0.64079 -12.13604,4.07419 -17.13581,-2.97246c-1.89247,-2.66724 -1.38331,-9.91323 -1.21031,-15.45878c0.03604,-1.15536 0.66478,-1.30288 0.5416,-2.21498c-1.31152,-9.71076 0.76848,-22.23518 5.10144,-29.91191c3.18833,-5.64879 10.29863,-6.95373 13.57567,-7.3496c7.73054,-0.93386 1.17768,6.76923 3.45427,23.62549z"/><g data-paper-data="{&quot;index&quot;:null}"><path d="M183.84199,250.22287l-5.83697,-27.64145c0,0 6.40054,-1.66867 10.1062,-2.33623c1.63308,-0.30828 3.35472,-0.16489 4.94468,0.17481c3.4259,0.73196 6.24044,2.37531 6.24044,2.37531l-2.78273,28.25191z"/><path d="M197.23382,270.64474c-2.90123,0.50931 -7.65611,-1.4834 -7.65611,-1.4834c0,0 -7.08771,-4.35952 -8.57586,-8.30537c-1.51437,-4.24783 2.91539,-11.65122 2.91539,-11.65122l11.61364,-1.93659c0,0 11.3075,3.95939 11.99468,9.98759c0.39867,2.70635 -1.56003,8.41552 -1.56003,8.41552c0,0 -3.72842,2.28967 -4.93682,1.565c-1.2084,-0.72466 -0.73963,-6.63216 -2.81893,-6.07978c-2.72111,0.69911 2.10538,9.16874 -0.97596,9.48825z"/></g></g><path d="M199.70135,221.90575c-0.22043,2.95835 -3.34847,2.74987 -3.34847,2.74987l-3.24396,-0.87498c-0.51604,-0.46047 -2.05038,-2.16925 -3.03353,-2.05069c-1.69851,0.20485 -4.20157,2.29711 -5.70299,3.15747c-0.33704,0.20073 -0.71953,0.34331 -1.13378,0.41096c-0.91098,0.18344 -2.22674,0.11783 -3.17648,-1.3212c-0.04457,-0.06565 -0.08651,-0.13316 -0.12568,-0.20242c-0.86321,-1.4809 -0.28498,-2.59835 0.32617,-3.26125c0.24876,-0.29153 0.55573,-0.53896 0.90694,-0.72521c2.40997,-1.35259 5.61238,-3.84029 8.46624,-3.97512c3.26034,-0.15404 5.55337,1.71899 7.74355,3.62356l-0.58563,-0.69782c0,0 3.12805,0.20847 2.90762,3.16681z" fill="#140047" stroke="#000000" stroke-width="0" stroke-linecap="butt"/><g fill="#140047" stroke="#000000" stroke-width="1.5" stroke-linecap="butt"><path d="M251.78484,170.59178c3.28547,0.32754 10.42441,1.48411 13.74348,7.06514c4.51062,7.58464 6.88169,20.06272 5.79655,29.79843c-0.10192,0.91445 0.5301,1.04883 0.59304,2.20317c0.30206,5.54059 0.97978,12.77424 -0.85014,15.48023c-4.83451,7.14905 -11.74439,3.85873 -17.06246,3.32855c-2.41947,-0.24121 -2.16882,-3.77216 -2.71102,-6.50288c-0.9701,-4.88576 -1.56046,-13.2994 -1.99552,-22.04704c-0.10071,-2.02499 -0.66089,-3.44888 -0.41735,-5.6339c1.88361,-16.89958 -4.84699,-24.46436 2.90342,-23.69169z"/><g data-paper-data="{&quot;index&quot;:null}"><path d="M255.00887,253.1132l-3.43976,-28.18712c0,0 2.7756,-1.70157 6.18363,-2.50468c1.58167,-0.37273 3.29955,-0.55194 4.93941,-0.27773c3.7203,0.59024 10.15813,2.12523 10.15813,2.12523l-5.19207,27.75629z"/><path d="M254.74509,272.72094c-3.08804,-0.25526 1.5401,-8.82334 -1.19661,-9.46562c-2.09166,-0.50895 -1.48548,5.38735 -2.67671,6.137c-1.19123,0.74966 -4.97205,-1.46182 -4.97205,-1.46182c0,0 -2.09114,-5.667 -1.75557,-8.381c0.54667,-6.04104 11.75926,-10.23492 11.75926,-10.23492l11.65591,1.69429c0,0 4.60104,7.30936 3.18592,11.58769c-1.39593,3.97588 -8.38043,8.48193 -8.38043,8.48193c0,0 -4.70734,2.09125 -7.61972,1.64247z"/></g></g><path d="M253.97668,220.81856l-0.56924,0.70984c2.14531,-1.94972 4.39418,-3.87005 7.65732,-3.78393c2.8563,0.07538 6.11585,2.49579 8.55673,3.79787c0.35546,0.17888 0.66812,0.41987 0.9236,0.70614c0.62644,0.65002 1.23054,1.75516 0.40201,3.25367c-0.03754,0.07006 -0.0779,0.13842 -0.12092,0.20498c-0.91601,1.45845 -2.22992,1.55145 -3.14496,1.38703c-0.41572,-0.05901 -0.80145,-0.19358 -1.14307,-0.38725c-1.52108,-0.82889 -4.07225,-2.86852 -5.77512,-3.03795c-0.98568,-0.09808 -2.47986,1.64225 -2.98505,2.11336l-3.2228,0.94232c0,0 -3.12244,0.27355 -3.41168,-2.67948c-0.28925,-2.95304 2.83319,-3.22659 2.83319,-3.22659z" fill="#140047" stroke="#000000" stroke-width="0" stroke-linecap="butt"/><path d="M219.44419,344.70485c0,5.73265 -4.73832,10.37988 -10.58333,10.37988c-5.84501,0 -10.58333,-4.64723 -10.58333,-10.37988c0,-5.73265 4.73832,-10.37988 10.58333,-10.37988c5.84501,0 10.58333,4.64723 10.58333,10.37988z" fill="#140047" stroke="#000000" stroke-width="3.5" stroke-linecap="butt"/><path d="M253.15407,344.70485c0,5.73265 -4.73832,10.37988 -10.58333,10.37988c-5.84502,0 -10.58333,-4.64723 -10.58333,-10.37988c0,-5.73265 4.73832,-10.37988 10.58333,-10.37988c5.84502,0 10.58333,4.64723 10.58333,10.37988z" fill="#140047" stroke="#000000" stroke-width="3.5" stroke-linecap="butt"/><path d="M232.77136,355.45544v-7.4142h21.55864v7.4142z" fill="#140047" stroke="#000000" stroke-width="3.5" stroke-linecap="butt"/><path d="M198.27753,355.08473v-7.4142h21.45174v7.4142z" fill="#140047" stroke="#000000" stroke-width="3.5" stroke-linecap="butt"/><path d="M215.13247,336.36388c0,1.12605 -2.6324,2.0389 -5.87963,2.0389c-3.24723,0 -5.87963,-0.91285 -5.87963,-2.0389c0,-1.12605 2.6324,-2.0389 5.87963,-2.0389c3.24723,0 5.87963,0.91285 5.87963,2.0389z" fill="#140047" stroke="#000000" stroke-width="3.5" stroke-linecap="butt"/><path d="M248.05839,336.73459c0,1.12605 -2.6324,2.0389 -5.87963,2.0389c-3.24723,0 -5.87963,-0.91285 -5.87963,-2.0389c0,-1.12605 2.6324,-2.0389 5.87963,-2.0389c3.24723,0 5.87963,0.91285 5.87963,2.0389z" fill="#140047" stroke="#000000" stroke-width="3.5" stroke-linecap="butt"/><path d="M214.6621,227.53823l12.07284,-5.33822" fill="#140047" stroke="#000000" stroke-width="0.5" stroke-linecap="round"/><path d="M225.2182,222.28603c0.05804,-0.10173 0.58211,-0.95582 1.57225,-0.48761c1.05178,0.49736 0.52589,1.49208 0.52589,1.49208l-0.63749,0.77139c-1.9085,1.00236 -3.9472,2.49589 -5.97111,3.18719c-0.8286,0.28302 -1.85369,0.11938 -2.56162,0.6153c-0.80821,0.56618 -1.5412,1.28988 -2.48501,1.61862c0,0 -1.11558,0.35169 -1.48744,-0.70337c-0.37186,-1.05506 0.74372,-1.40675 0.74372,-1.40675c0.76407,-0.20038 1.24316,-0.93428 1.90512,-1.34706c1.1223,-0.69984 2.79685,-0.51762 3.9671,-1.21522c1.46596,-0.87386 2.90721,-1.71451 4.42859,-2.52456z" fill="#140047" stroke="#000000" stroke-width="0" stroke-linecap="butt"/><path d="M221.38602,212.02353c-0.37186,-1.05506 0.74372,-1.40675 0.74372,-1.40675l1.0274,-0.32043c5.80406,-1.31561 8.69726,-4.93379 12.02831,-9.35423c0,0 0.6835,-0.90498 1.64039,-0.25856c0.95689,0.64641 0.27339,1.55139 0.27339,1.55139c-3.70965,4.89968 -7.00272,8.66473 -13.37169,10.21926l-0.85408,0.2727c0,0 -1.11558,0.35169 -1.48744,-0.70337z" fill="#140047" stroke="#000000" stroke-width="0" stroke-linecap="butt"/><path d="M245.18065,241.42904c-0.26294,-0.49736 0.26294,-0.74604 0.26294,-0.74604l0.23602,-0.10425c2.21611,-1.48365 3.62048,-3.49411 5.78896,-5.03318c0,0 0.47037,-0.33364 0.82315,0.11121c0.35278,0.44485 -0.11759,0.77849 -0.11759,0.77849c-2.17357,1.54083 -3.58551,3.54855 -5.81351,5.05013l-0.39114,0.19232c0,0 -0.52589,0.24868 -0.78883,-0.24868z" fill="#140047" stroke="#000000" stroke-width="0.5" stroke-linecap="butt"/><path d="M186.02502,186.86053c-0.26294,0.49736 -0.78883,0.24868 -0.78883,0.24868l-0.19324,-0.10618c-1.4742,-0.37305 -3.45557,-1.83137 -3.87719,-3.222c0,0 -0.1426,-0.53946 0.42781,-0.67433c0.57041,-0.13486 0.71301,0.4046 0.71301,0.4046c0.18141,0.92064 2.05792,2.20812 3.02157,2.4128l0.43392,0.19039c0,0 0.52589,0.24868 0.26294,0.74604z" fill="#140047" stroke="#000000" stroke-width="0.5" stroke-linecap="butt"/><path d="M186.87105,210.33729c0,0.55606 -0.58796,0.55606 -0.58796,0.55606l-0.57653,-0.05871c-2.28707,-1.15768 -4.83788,-1.42075 -6.22097,-3.95578c0,0 -0.26294,-0.49736 0.26294,-0.74604c0.52589,-0.24868 0.78883,0.24868 0.78883,0.24868c1.13319,2.23272 3.65081,2.53677 5.69508,3.45842l0.05064,-0.05871c0,0 0.58796,0 0.58796,0.55606z" fill="#140047" stroke="#000000" stroke-width="0.5" stroke-linecap="butt"/><path d="M212.16667,124.83333c0,1.57543 0.32913,3.09597 0.30849,4.52845c-0.09149,6.3512 -0.83925,10.97154 -2.64183,10.97154c-2.20914,0 -3.33333,-6.93958 -3.33333,-15.5c0,-8.56042 1.12419,-15.5 3.33333,-15.5c2.20914,0 2.33334,6.93958 2.33334,15.5z" fill="#00ecff" stroke="none" stroke-width="NaN" stroke-linecap="butt"/><path d="M238.83334,126.16667c0,8.56042 -0.45753,14.83333 -2.66666,14.83333c-2.20914,0 -3,-6.93959 -3,-15.5c0,-8.56042 0.79086,-15.5 3,-15.5c2.20914,0 2.66666,7.60625 2.66666,16.16667z" fill="#00ecff" stroke="none" stroke-width="NaN" stroke-linecap="butt"/><path d="M244.83334,146.83333c0,1.38071 -11.08883,6.5 -19.83334,6.5c-8.74451,0 -22.16667,-6.78596 -22.16667,-8.16666c0,-1.38071 12.75549,2.83333 21.5,2.83333c8.74451,0 20.50001,-2.54738 20.50001,-1.16667z" fill="#00ecff" stroke="none" stroke-width="0" stroke-linecap="butt"/><path d="M141.33271,274.18085c2.38014,-11.66192 -3.64962,-36.84752 6.58047,-36.84752c6.54838,0 30.10886,5.58796 33.77948,14.10831c2.98528,6.92951 -13.27948,16.47575 -13.27948,21.05836c0,6.6271 -8.71632,10.44033 -14.80245,13.70742c-3.2971,1.76992 -0.85853,2.79258 -5.03089,2.79258c-6.4522,0 -27.57391,5.22106 -31.51477,1.34837c-2.31214,-2.27215 13.39066,-3.78958 15.43389,-8.70207c0.8832,-2.12347 -7.08579,-7.73828 -7.08579,-9.1463c0,-1.41463 15.53703,3.55499 15.91954,1.68085z" data-paper-data="{&quot;index&quot;:null}" fill="#9e0000" stroke="#000000" stroke-width="0" stroke-linecap="butt"/><path d="M201.74651,224.94488c0,-1.40802 1.30232,-26.35617 0.41912,-28.47963c-2.04323,-4.91249 -2.07936,-26.09658 0.23278,-28.36873c3.94086,-3.87269 4.72923,20.01503 11.18143,20.01503c4.17236,0 1.73379,1.02267 5.03089,2.79258c1.80455,0.9687 3.84033,1.98541 5.81158,3.10925c0.4802,0.27377 -8.37676,23.22057 -7.90849,23.50791c4.09257,2.5113 16.89935,-17.09322 16.89935,-12.90974c0,1.53643 -11.50504,19.63081 -9.18693,21.99745c4.596,4.69222 24.4508,-5.54532 22.4664,-0.93909c-3.67061,8.52034 -34.89776,20.77497 -41.44614,20.77497c-10.23009,0 3.46634,-31.85226 1.0862,-43.51418c-0.38251,-1.87414 -4.5862,23.42882 -4.5862,22.01419z" data-paper-data="{&quot;index&quot;:null}" fill="#9e0000" stroke="#000000" stroke-width="0" stroke-linecap="butt"/></g></g></g></svg>