<svg version="1.1" xmlns="http://www.w3.org/2000/svg" xmlns:xlink="http://www.w3.org/1999/xlink" width="243.74324" height="418.58373" viewBox="0,0,243.74324,418.58373"><defs><radialGradient cx="188.94895" cy="181.20354" r="227.82642" gradientUnits="userSpaceOnUse" id="color-1"><stop offset="0" stop-color="#000000" stop-opacity="0"/><stop offset="1" stop-color="#000000"/></radialGradient><radialGradient cx="196.25" cy="66.79366" r="50.75" gradientUnits="userSpaceOnUse" id="color-2"><stop offset="0" stop-color="#000000"/><stop offset="1" stop-color="#000000" stop-opacity="0"/></radialGradient></defs><g transform="translate(-67.07732,30.6878)"><g data-paper-data="{&quot;isPaintingLayer&quot;:true}" fill-rule="nonzero" stroke-linejoin="miter" stroke-miterlimit="10" stroke-dasharray="" stroke-dashoffset="0" style="mix-blend-mode: normal"><path d="M310.57057,181.20354c0,91.97868 -27.06152,171.96421 -72.05395,199.58928c-12.18385,7.4808 -27.26837,6.14928 -41.58175,6.14928c-18.05153,0 -33.9899,3.20338 -48.63877,-4.05794c-22.45682,-11.13166 -41.11302,-38.88714 -53.68499,-78.17104c-3.45608,-10.7993 -8.98929,-31.80594 -18.81578,-62.42719c-2.91835,-9.09415 -8.468,-55.26843 -8.468,-61.08239c0,-7.49231 24.7519,25.90853 25.18836,18.6172c1.72512,-28.81911 -2.31363,-24.41499 -1.6436,-54.10356c0.18569,-8.22769 14.07179,17.68858 15.76319,10.06797c3.09069,-13.92511 -11.5357,-31.69209 -15.1626,-51.05927c-1.55316,-8.29367 7.28691,17.86439 9.83424,9.89929c0.31678,-0.99053 -3.95656,-37.98466 -3.7078,-38.90941c1.44389,-5.36763 15.15105,28.54913 17.12106,23.35909c2.50226,-6.59226 -6.58435,-52.22649 -3.38951,-58.40827c5.92622,-11.46679 14.03439,19.75396 21.4849,10.38093c6.58677,-8.28642 -12.25438,-66.16297 -5.47645,-78.71471c5.37131,-9.94689 21.97357,34.23777 30.28077,29.21146c11.5114,-6.96503 25.23577,-31.98206 31.32907,-31.98206c4.68195,0 2.45703,28.01512 7.00126,28.91126c5.51151,1.0869 35.49604,-18.60867 40.86175,-16.69732c8.92629,3.17969 3.23333,22.92 10.36356,29.34006c5.35874,4.82501 14.52839,-13.14214 19.45719,-7.25806c6.80921,8.12894 -1.92265,30.8516 3.40828,43.15085c1.42716,3.29267 12.03628,-23.58306 13.5537,-20.21539c5.14859,11.4264 -5.06554,49.71488 -1.16765,66.3814c1.72677,7.38327 17.64802,-21.41901 20.09789,-15.13811c2.93311,7.5198 -17.47107,39.59728 -21.74852,61.7595c-1.22492,6.34651 19.6819,-22.36162 20.06914,-17.11595c1.13531,15.3794 -13.79756,60.99356 -13.67695,71.01929c0.14977,12.45031 23.40196,-21.06948 23.40196,-12.4962z" fill="url(#color-1)" stroke="#00361d" stroke-width="0.5" stroke-linecap="butt"/><path d="M256.79041,61.97323c0,28.96321 -27.35218,52.44251 -61.0928,52.44251c-33.74061,0 -61.0928,-23.4793 -61.0928,-52.44251c0,-28.9632 27.35218,-52.44251 61.0928,-52.44251c33.74061,0 61.0928,23.4793 61.0928,52.44251z" fill="#005a30" stroke="#000000" stroke-width="1.5" stroke-linecap="butt"/><g stroke-linecap="butt"><path d="M256.84275,113.71709l-137.94078,131.8363l-9.28403,-9.71392l137.94078,-131.8363z" fill="#3d1c00" stroke="#000000" stroke-width="1.5"/><text transform="translate(178.61604,186.38445) rotate(-44.17303) scale(0.76278,0.37349) skewX(0.19728)" font-size="40" xml:space="preserve" fill="#000000" fill-rule="nonzero" stroke="none" stroke-width="1" stroke-linecap="butt" stroke-linejoin="miter" stroke-miterlimit="10" stroke-dasharray="" stroke-dashoffset="0" font-family="Sans Serif" font-weight="normal" text-anchor="start" style="mix-blend-mode: normal"><tspan x="0" dy="0">Ben</tspan></text><path d="M119.7378,234.65411c-3.99492,-10.7245 -9.81695,-24.15049 -5.11955,-31.29285c4.45262,-6.77017 11.5835,-8.82725 20.55352,-10.08409c16.68994,-2.33853 40.11568,9.26212 46.87466,25.39537c0.70597,1.6851 17.85429,-12.04145 18.32201,-10.24598c4.94559,18.98544 -18.18714,56.21597 -36.62034,58.79876c-2.68976,0.37688 -8.59089,3.8731 -14.04539,5.65564c-5.29532,1.73051 -18.4857,3.32627 -20.83235,2.49358c-5.40023,-1.91622 12.45153,-12.9608 10.22393,-19.72847c-0.61762,-1.87637 -0.7642,-1.12661 -2.33775,-2.80455c-5.15384,-5.49576 -14.96756,-12.68096 -17.01874,-18.1874z" fill="#810000" stroke="#000000" stroke-width="1.5"/><path d="M166.37418,243.4376c7.82842,-9.588 28.57355,-36.99548 34.00822,-32.68228c5.43468,4.31319 -8.51319,32.21067 -16.34161,41.79866c-2.32739,2.85052 -5.99108,7.60327 -12.36418,10.99161c-15.06347,8.00868 -37.98371,14.17236 -41.80266,11.14148c-5.07425,-4.02714 24.25992,-19.24311 34.5663,-29.75366c0.73207,-0.74657 1.41475,-0.85993 1.93393,-1.49581z" fill="#ffffff" stroke="#000000" stroke-width="1.5"/></g><path d="M213.54587,123.91556c-2.72214,1.30084 -14.2323,8.07285 -17.73503,8.07285c-4.98517,0 -13.74097,-6.58394 -16.89341,-9.03625c-1.35907,-1.05724 1.65518,-5.69192 1.66099,-10.48022c0.00651,-5.35576 -2.87097,-10.90372 -2.14661,-11.85285c2.9446,-3.8583 12.6156,-0.68398 19.12224,-0.68398c6.36624,0 13.42977,-0.39268 16.42488,3.32912c0.72816,0.90484 -1.74483,4.66676 -1.42458,9.20103c0.33609,4.75852 3.39336,10.30251 0.9915,11.4503z" fill="#005a30" stroke="#000000" stroke-width="1.5" stroke-linecap="butt"/><g fill="#00006f" stroke="#000000" stroke-width="1.5" stroke-linecap="butt"><path d="M163.8785,366.77399l-1.40246,-61.99277l2.23149,-77.08882h35.53047l-4.30743,76.71761l-7.65448,62.364z"/><path d="M208.5644,366.22049l-7.65448,-62.364l-4.30743,-76.71761h35.53047l2.23149,77.08882l-1.40246,61.99277z" data-paper-data="{&quot;index&quot;:null}"/></g><path d="M166.12272,233.77814l-0.23344,-84.85048c0,0 17.74178,-8.7853 32.91567,-9.00772c15.17389,-0.22241 27.93561,4.4606 30.73694,5.90628c2.68461,1.33448 3.57941,90.39844 3.57941,90.39844c0,0 -19.95951,3.11378 -33.49929,3.00258c-13.77322,-0.22241 -33.49929,-5.44912 -33.49929,-5.44912z" fill="#005a30" stroke="#000000" stroke-width="1.5" stroke-linecap="butt"/><path d="M154.77752,195.44695l-1.45542,-58.5112l2.18313,57.78885" fill="none" stroke="#000000" stroke-width="4" stroke-linecap="round"/><path d="M259.05994,190.93754c0,21.30758 -33.49549,7.11618 -62.61602,7.11618c-29.12053,0 -56.65011,9.91292 -56.65011,-11.39466c0,-9.24501 7.90633,-49.95735 15.31668,-56.60203c6.83696,-6.13053 13.43599,-8.17363 26.0505,-8.84453c1.23538,-0.06571 1.85961,-0.16018 1.85961,-0.16018c0,0 7.69493,7.53635 13.42333,7.59475c5.72839,0.0584 12.67981,-5.79478 12.67981,-5.79478c0,0 2.08613,-1.708 3.57991,-1.55486c11.48841,1.17776 23.5021,4.29995 29.92088,10.14159c7.26491,6.61168 15.88086,47.06084 15.88086,56.2047z" fill="#005a30" stroke="#000000" stroke-width="1.5" stroke-linecap="butt"/><path d="M225.69664,207.27369c-1.81356,0 -3.34522,-1.20691 -3.83561,-2.86136c-3.96319,0.33569 -8.01327,0.35126 -11.65312,-0.16861c-2.45253,-0.35029 -4.71051,-1.60133 -7.15199,-2.02168c-2.90935,-0.5009 -7.8092,-0.5009 -10.71855,0c-3.29587,0.56745 -6.52268,2.36351 -9.82506,2.96195c-6.67194,1.20906 -6.80233,1.07811 -11.7965,1.08965c-0.00638,0.00003 -0.01277,0.00005 -0.01916,0.00005c-0.50556,0 -0.98922,-0.09379 -1.43451,-0.26492c-1.14746,-0.38986 -2.56549,-1.35345 -2.56549,-3.73508c0,-2.38163 1.41804,-3.34522 2.56549,-3.73508c0.30183,-0.11599 0.62127,-0.19645 0.95322,-0.23626c0.68745,-1.21139 1.98893,-2.02866 3.48129,-2.02866c0.72858,0 1.41165,0.19479 2,0.53513c0.58835,-0.34034 1.27142,-0.53513 2,-0.53513c1.09417,0 2.08572,0.43932 2.8079,1.15119c0.08307,-0.01508 0.16735,-0.03043 0.25288,-0.04604c3.45639,-0.63087 6.82819,-2.48821 10.29849,-3.05349c3.68231,-0.59982 9.59915,-0.59982 13.28145,0c2.3451,0.382 4.49588,1.6422 6.84801,1.97832c5.53101,0.79038 12.32921,0.15047 17.7268,-0.95229l1.78447,-0.07767c0,0 4,0 4,4c0,4 -4,4 -4,4l-0.21553,-0.07767c-0.2593,0.05091 -0.52106,0.10097 -0.78511,0.1501c-0.03863,2.17572 -1.81441,3.92757 -3.99936,3.92757z" fill="#005a30" stroke="none" stroke-width="0.5" stroke-linecap="butt"/><path d="M152.93426,175.71288c0,0 -1.69696,-9.7786 -1.91157,-14.34784c-0.19628,-4.17894 0.67392,-12.00138 0.67392,-12.00138" fill="none" stroke="#000000" stroke-width="3.5" stroke-linecap="round"/><path d="M165.02997,198.94035l1.33333,-7" fill="none" stroke="#000000" stroke-width="1.5" stroke-linecap="round"/><path d="M246.00323,151.03032c0,0 0.87021,7.82244 0.67393,12.00139c-0.21462,4.56923 -1.91157,14.34784 -1.91157,14.34784" fill="none" stroke="#000000" stroke-width="3.5" stroke-linecap="round"/><path d="M252.50478,74.82661c0,9.08502 -5.22376,16.44989 -11.6676,16.44989c-6.44384,0 -11.6676,-7.36487 -11.6676,-16.44989c0,-9.08502 5.22376,-16.44989 11.6676,-16.44989c6.44384,0 11.6676,7.36487 11.6676,16.44989z" fill="#b07243" stroke="#000000" stroke-width="1.5" stroke-linecap="butt"/><path d="M163.84417,75.74849c0,9.08502 -5.22376,16.44989 -11.6676,16.44989c-6.44384,0 -11.6676,-7.36487 -11.6676,-16.44989c0,-9.08502 5.22376,-16.44989 11.6676,-16.44989c6.44384,0 11.6676,7.36487 11.6676,16.44989z" fill="#b07243" stroke="#000000" stroke-width="1.5" stroke-linecap="butt"/><path d="M210.23536,122.91556c-2.15729,1.30084 -11.27907,8.07285 -14.05497,8.07285c-3.95074,0 -10.88969,-6.58394 -13.38799,-9.03625c-1.07706,-1.05724 1.31173,-5.69192 1.31633,-10.48022c0.00516,-5.35576 -2.27524,-10.90372 -1.70119,-11.85285c2.33359,-3.8583 9.99784,-0.68398 15.15434,-0.68398c5.04523,0 10.64306,-0.39268 13.01668,3.32912c0.57707,0.90484 -1.38277,4.66676 -1.12897,9.20103c0.26635,4.75852 2.68923,10.30251 0.78576,11.4503z" fill="#af7f5b" stroke="#000000" stroke-width="1.5" stroke-linecap="butt"/><path d="M208.99286,107.74585c0,3.74756 -5.46359,6.78556 -12.20328,6.78556c-6.73969,0 -12.20328,-3.038 -12.20328,-6.78556c0,-3.74756 5.46359,-6.78556 12.20328,-6.78556c6.73969,0 12.20328,3.038 12.20328,6.78556z" fill="#a6734b" stroke="none" stroke-width="0" stroke-linecap="butt"/><path d="M248.29041,72.22323c0,20.54086 -22.98695,37.19251 -51.3428,37.19251c-28.35584,0 -51.3428,-16.65165 -51.3428,-37.19251c0,-20.54086 22.98695,-37.19251 51.3428,-37.19251c28.35584,0 51.3428,16.65165 51.3428,37.19251z" fill="#af7f5b" stroke="#000000" stroke-width="1.5" stroke-linecap="butt"/><path d="M202.73064,85.47557c0,1.13463 -3.75051,2.05442 -8.37699,2.05442c-4.62648,0 -8.37699,-0.91979 -8.37699,-2.05442c0,-1.13463 3.75051,-2.05442 8.37699,-2.05442c4.62648,0 8.37699,0.91979 8.37699,2.05442z" fill="#a6734b" stroke="#a6734b" stroke-width="0.5" stroke-linecap="butt"/><path d="M247,66.79366c0,9.66499 -22.72155,17.5 -50.75,17.5c-28.02845,0 -50.75,-7.83501 -50.75,-17.5c0,-9.66499 22.72155,-17.5 50.75,-17.5c28.02845,0 50.75,7.83501 50.75,17.5z" fill="url(#color-2)" stroke="#000000" stroke-width="0" stroke-linecap="butt"/><path d="M248.50605,51.65048c0,5.2116 2.65189,11.73482 0.31931,16.30794c-0.93258,1.82836 -0.79375,6.41466 -1.4015,8.98689c-1.17183,4.95964 -2.70901,7.84323 -3.15541,6.97402c-1.21963,-2.37479 -2.09999,-22.50062 -16.33488,-22.50062c-18.62638,0 -49.29573,12.61459 -69.82932,9.58944c-2.3951,-0.35286 -4.97776,13.30132 -8.43951,13.02458c-4.13097,-0.33024 -7.91882,-15.72207 -10.05925,-17.69079c-4.55248,-4.18726 -6.0633,-23.54941 -6.0633,-27.80144c0,-5.3017 2.79266,6.58159 5.59386,2.69752c0.59964,-0.83145 -2.08087,-11.97928 -1.38823,-12.87054c0.62448,-0.80357 0.16633,-2.72377 1.00347,-4.80172c2.48494,-6.16811 6.93037,-15.73412 9.80857,-17.57936c3.78523,-2.42676 18.57386,13.55624 23.06752,13.99741c0.59269,0.05819 -6.37293,-14.77719 -5.7703,-14.68976c8.31636,1.20671 22.99895,10.11118 32.42792,10.11118c23.01149,0 48.9849,13.12784 53.80889,27.3158c1.23568,3.63428 -3.58782,4.38428 -3.58782,8.92947z" fill="#341600" stroke="#000000" stroke-width="1.5" stroke-linecap="butt"/><path d="M198.14937,99.80986l-11.60952,-0.53273" fill="none" stroke="#000000" stroke-width="1.5" stroke-linecap="round"/><path d="M210.08991,129.82951c-7.99171,3.48057 -15.62579,4.42109 -17.05118,2.10071c-1.42539,-2.32038 3.89766,-7.02298 11.88937,-10.50355c7.99171,-3.48057 15.62579,-4.42109 17.05117,-2.10071c1.42539,2.32038 -3.89766,7.02298 -11.88936,10.50354z" fill="#00381e" stroke="#000000" stroke-width="1.5" stroke-linecap="butt"/><path d="M173.25425,119.22704c1.42539,-2.32038 9.05947,-1.37986 17.05117,2.10071c7.99171,3.48057 13.31476,8.18317 11.88937,10.50354c-1.42539,2.32038 -9.05947,1.37986 -17.05117,-2.10071c-7.99171,-3.48057 -13.31476,-8.18317 -11.88936,-10.50355z" data-paper-data="{&quot;index&quot;:null}" fill="#00381e" stroke="#000000" stroke-width="1.5" stroke-linecap="butt"/><path d="M237.5,72.29366c0,8.00813 -7.49923,14.5 -16.75,14.5c-9.25077,0 -16.75,-6.49187 -16.75,-14.5c0,-8.00813 7.49923,-14.5 16.75,-14.5c9.25077,0 16.75,6.49187 16.75,14.5z" fill="#ffffff" stroke="#000000" stroke-width="0.5" stroke-linecap="butt"/><path d="M187,70.29366c0,8.00813 -7.49923,14.5 -16.75,14.5c-9.25077,0 -16.75,-6.49187 -16.75,-14.5c0,-8.00813 7.49923,-14.5 16.75,-14.5c9.25077,0 16.75,6.49187 16.75,14.5z" fill="#000000" stroke="#000000" stroke-width="0.5" stroke-linecap="butt"/><path d="M222.68768,85.69156c-8.83294,0.98086 -16.98206,-4.53582 -18.20158,-12.32188c-1.21952,-7.78605 4.95239,-14.89304 13.78532,-15.8739c4.53618,-0.50373 12.18787,8.11518 12.64872,15.42453c0.43653,6.92355 -6.14156,12.53906 -8.23246,12.77125z" fill="#32dcff" stroke="#000000" stroke-width="1.5" stroke-linecap="butt"/><path d="M236.27229,55.70374l-32.03885,-1.33044" data-paper-data="{&quot;index&quot;:null}" fill="none" stroke="#000000" stroke-width="3.5" stroke-linecap="round"/><path d="M186.02856,54.4701l-32.03885,-1.33044" data-paper-data="{&quot;index&quot;:null}" fill="none" stroke="#000000" stroke-width="3.5" stroke-linecap="round"/><path d="M190.54856,158.95084c-0.63594,0.53547 -1.93886,-5.87114 -2.16981,-11.88465c-0.1859,-4.84052 0.62694,-9.42635 0.71627,-9.93186c0.43377,-2.45469 0.64481,-4.84417 1.77834,-7.10013c0,0 0.6325,-1.2588 2.12749,-0.72623c1.49499,0.53257 0.8625,1.79137 0.8625,1.79137c-1.00768,2.0055 -1.01926,4.22523 -1.40832,6.40916c-0.07127,0.40006 -0.62606,4.99299 -0.53814,9.80147c0.08209,4.48972 0.79833,9.16737 0.97577,10.79534c0.10808,0.99161 -2.08323,0.62587 -2.3441,0.84552z" fill="#000000" stroke="none" stroke-width="0.5" stroke-linecap="butt"/><path d="M208.58472,161.80243c-1.60697,0.1933 -1.83654,-1.15979 -1.83654,-1.15979l-0.15553,-0.9372c-0.42753,-4.7179 0.11661,-9.46696 -0.28869,-14.19396c-0.43011,-5.01632 -1.30077,-10.08002 -2.14774,-15.0596c0,0 -0.22956,-1.35308 1.3774,-1.54638c1.60697,-0.1933 1.83654,1.15979 1.83654,1.15979c0.85367,5.04372 1.74543,10.17143 2.17221,15.25241c0.39668,4.72255 -0.1468,9.46693 0.2873,14.17808l0.13247,0.76027c0,0 0.22956,1.35308 -1.3774,1.54638z" fill="#000000" stroke="none" stroke-width="0.5" stroke-linecap="butt"/><g stroke-linecap="butt"><g stroke="#000000" stroke-width="1.5"><path d="M167.31721,156.4515c0.37547,2.93952 -0.29664,4.87529 -0.36494,7.60868c-0.29505,11.80786 -0.79808,23.1697 -1.89014,29.78507c-0.61037,3.69744 -0.18587,8.45166 -3.2642,8.84486c-6.7663,0.86427 -15.48062,5.49512 -21.85828,-4.00914c-2.41402,-3.59747 -1.76454,-13.3706 -1.54386,-20.85023c0.04597,-1.55831 0.84799,-1.75727 0.69086,-2.98748c-1.67296,-13.09751 0.98027,-29.99 6.50735,-40.34408c4.06701,-7.61888 13.13684,-9.37894 17.317,-9.91287c9.86101,-1.25956 1.50224,9.13009 4.40623,31.86519z" fill="#005a30"/><g data-paper-data="{&quot;index&quot;:null}"><path d="M145.08617,234.83987l-7.44559,-37.28177c0,0 8.16447,-2.25064 12.89137,-3.15102c2.08314,-0.4158 4.27925,-0.2224 6.30739,0.23578c4.37004,0.98724 7.96024,3.20373 7.96024,3.20373l-3.54962,38.10514z" fill="#005a30"/><path d="M162.16865,262.38413c-3.70078,0.68694 -9.76606,-2.00076 -9.76606,-2.00076c0,0 -9.04102,-5.87996 -10.93929,-11.20198c-1.93172,-5.72932 3.71884,-15.71474 3.71884,-15.71474l14.81425,-2.612c0,0 14.42374,5.34028 15.3003,13.47089c0.50854,3.65023 -1.98996,11.35055 -1.98996,11.35055c0,0 -4.75594,3.08822 -6.29736,2.11081c-1.54142,-0.9774 -0.94346,-8.94521 -3.5958,-8.20018c-3.47102,0.94294 2.6856,12.36646 -1.24493,12.7974z" fill="#af7f5b"/></g></g><path d="M165.31622,196.64677c-0.28118,3.99011 -4.27128,3.70893 -4.27128,3.70893l-4.13796,-1.18014c-0.65825,-0.62107 -2.61544,-2.92581 -3.86954,-2.76589c-2.1666,0.27629 -5.35948,3.09826 -7.27468,4.25868c-0.42992,0.27074 -0.91783,0.46304 -1.44624,0.55429c-1.16204,0.24742 -2.84041,0.15892 -4.05189,-1.78199c-0.05685,-0.08855 -0.11035,-0.1796 -0.16031,-0.27301c-1.1011,-1.99738 -0.36352,-3.50456 0.41606,-4.39866c0.31731,-0.3932 0.70889,-0.72693 1.15689,-0.97813c3.07413,-1.82433 7.1591,-5.17964 10.79945,-5.3615c4.15886,-0.20777 7.08382,2.31851 9.8776,4.88733l-0.74702,-0.94119c0,0 3.99011,0.28118 3.70893,4.27128z" fill="#005a30" stroke="none" stroke-width="0.5"/></g><g stroke-linecap="butt"><g stroke="#000000" stroke-width="1.5"><path d="M231.75342,127.43638c4.19091,0.44177 13.29728,2.00171 17.53105,9.5292c5.75371,10.22988 8.77822,27.05986 7.39403,40.19103c-0.13001,1.23338 0.67619,1.41463 0.75647,2.97155c0.38531,7.47295 1.2498,17.22942 -1.08443,20.87917c-6.16686,9.64238 -14.98103,5.20451 -21.76471,4.48943c-3.08625,-0.32533 -2.76652,-5.08775 -3.45815,-8.77085c-1.23745,-6.58973 -1.99051,-17.93774 -2.54547,-29.73624c-0.12846,-2.73123 -0.84303,-4.65172 -0.53237,-7.5988c2.40272,-22.79353 -6.18277,-32.99663 3.70358,-31.95448z" fill="#005a30"/><g data-paper-data="{&quot;index&quot;:null}"><path d="M235.86597,238.73824l-4.38773,-38.01775c0,0 3.54053,-2.29501 7.88778,-3.37822c2.01756,-0.50272 4.20887,-0.74443 6.30067,-0.37459c4.74558,0.79609 12.95762,2.86643 12.95762,2.86643l-6.62295,37.43666z" fill="#005a30"/><path d="M235.52949,265.18444c-3.93907,-0.34429 1.96454,-11.9006 -1.52639,-12.76688c-2.6681,-0.68645 -1.89486,7.26626 -3.41438,8.27736c-1.51952,1.01111 -6.3423,-1.97165 -6.3423,-1.97165c0,0 -2.66744,-7.64344 -2.23939,-11.30398c0.69733,-8.14793 15,-13.80449 15,-13.80449l14.86817,2.2852c0,0 5.86904,9.85859 4.06393,15.62905c-1.78064,5.36252 -10.69,11.44011 -10.69,11.44011c0,0 -6.00464,2.8206 -9.71964,2.2153z" fill="#af7f5b"/></g></g><path d="M234.54931,195.18042l-0.72612,0.9574c2.73654,-2.62971 5.60517,-5.21978 9.7676,-5.10362c3.64347,0.10167 7.80132,3.36623 10.91488,5.12243c0.45342,0.24127 0.85225,0.5663 1.17814,0.95242c0.79908,0.87672 1.56966,2.36729 0.5128,4.38843c-0.04788,0.09449 -0.09937,0.1867 -0.15425,0.27647c-1.16845,1.96711 -2.84447,2.09254 -4.01168,1.87077c-0.53029,-0.07959 -1.02232,-0.2611 -1.45809,-0.52231c-1.94028,-1.11797 -5.19453,-3.86896 -7.36669,-4.09748c-1.25732,-0.13228 -3.16329,2.215 -3.8077,2.85042l-4.11097,1.27096c0,0 -3.98295,0.36896 -4.35191,-3.61399c-0.36896,-3.98295 3.61399,-4.35191 3.61399,-4.35191z" fill="#005a30" stroke="none" stroke-width="0.5"/></g><path d="M190.5,362.27369c0,7.73199 -6.04416,14 -13.5,14c-7.45584,0 -13.5,-6.26801 -13.5,-14c0,-7.73199 6.04416,-14 13.5,-14c7.45584,0 13.5,6.26801 13.5,14z" fill="#eb0000" stroke="#000000" stroke-width="3.5" stroke-linecap="butt"/><path d="M233.5,362.27369c0,7.73199 -6.04415,14 -13.5,14c-7.45585,0 -13.5,-6.26801 -13.5,-14c0,-7.73199 6.04415,-14 13.5,-14c7.45585,0 13.5,6.26801 13.5,14z" fill="#eb0000" stroke="#000000" stroke-width="3.5" stroke-linecap="butt"/><path d="M207.5,376.77369v-10h27.5v10z" fill="#ebebeb" stroke="#000000" stroke-width="3.5" stroke-linecap="butt"/><path d="M163.5,376.27369v-10h27.36364v10z" fill="#ebebeb" stroke="#000000" stroke-width="3.5" stroke-linecap="butt"/><path d="M185,351.02369c0,1.51878 -3.35786,2.75 -7.5,2.75c-4.14214,0 -7.5,-1.23122 -7.5,-2.75c0,-1.51878 3.35786,-2.75 7.5,-2.75c4.14214,0 7.5,1.23122 7.5,2.75z" fill="#a69a9a" stroke="#000000" stroke-width="3.5" stroke-linecap="butt"/><path d="M227,351.52369c0,1.51878 -3.35787,2.75 -7.5,2.75c-4.14213,0 -7.5,-1.23122 -7.5,-2.75c0,-1.51878 3.35787,-2.75 7.5,-2.75c4.14213,0 7.5,1.23122 7.5,2.75z" fill="#a69a9a" stroke="#000000" stroke-width="3.5" stroke-linecap="butt"/><g fill="none" stroke="#00fffc" stroke-width="0.5" stroke-linecap="round"><path d="M171.4,75.24366l-5.8,-7.6l12,0.2z"/><path d="M171.6,61.64366l-0.4,17.4"/></g><path d="M184.4,204.24366l15.4,-7.2" fill="none" stroke="#00361d" stroke-width="0.5" stroke-linecap="round"/><path d="M197.86527,197.15969c0.07403,-0.13721 0.74254,-1.28917 2.00555,-0.65767c1.34164,0.67082 0.67082,2.01246 0.67082,2.01246l-0.81318,1.04042c-2.43447,1.35195 -5.03501,3.36637 -7.61669,4.29876c-1.05696,0.38173 -2.36455,0.16101 -3.26758,0.8299c-1.03095,0.76364 -1.96594,1.73974 -3.16985,2.18313c0,0 -1.42302,0.47434 -1.89737,-0.94868c-0.47434,-1.42302 0.94868,-1.89737 0.94868,-1.89737c0.97464,-0.27027 1.58576,-1.26012 2.43015,-1.81687c1.4316,-0.94392 3.56764,-0.69815 5.0604,-1.63904c1.86996,-1.17863 3.70841,-2.31247 5.64907,-3.40504z" fill="#00301a" stroke="none" stroke-width="0.5" stroke-linecap="butt"/><path d="M192.97698,183.318c-0.47434,-1.42302 0.94868,-1.89737 0.94868,-1.89737l1.31054,-0.43219c7.4036,-1.77444 11.09414,-6.65451 15.3432,-12.61664c0,0 0.87186,-1.2206 2.09246,-0.34874c1.2206,0.87186 0.34874,2.09246 0.34874,2.09246c-4.732,6.60851 -8.9326,11.68667 -17.0568,13.78336l-1.08946,0.36781c0,0 -1.42302,0.47434 -1.89737,-0.94868z" fill="#00301a" stroke="none" stroke-width="0.5" stroke-linecap="butt"/><path d="M223.32918,222.97907c-0.33541,-0.67082 0.33541,-1.00623 0.33541,-1.00623l0.30107,-0.14061c2.82685,-2.00109 4.61825,-4.71273 7.38434,-6.78857c0,0 0.6,-0.45 1.05,0.15c0.45,0.6 -0.15,1.05 -0.15,1.05c-2.77259,2.07822 -4.57364,4.78616 -7.41566,6.81143l-0.49893,0.25939c0,0 -0.67082,0.33541 -1.00623,-0.33541z" fill="#00301a" stroke="none" stroke-width="0.5" stroke-linecap="butt"/><path d="M147.87082,149.37907c-0.33541,0.67082 -1.00623,0.33541 -1.00623,0.33541l-0.24649,-0.14321c-1.88047,-0.50315 -4.40789,-2.47008 -4.94571,-4.34571c0,0 -0.1819,-0.72761 0.54571,-0.90951c0.72761,-0.1819 0.90951,0.54571 0.90951,0.54571c0.2314,1.24172 2.62506,2.97823 3.85429,3.25429l0.55351,0.25679c0,0 0.67082,0.33541 0.33541,1.00623z" fill="#00301a" stroke="none" stroke-width="0.5" stroke-linecap="butt"/><path d="M148.95,181.04366c0,0.75 -0.75,0.75 -0.75,0.75l-0.73541,-0.07918c-2.91737,-1.56143 -6.17116,-1.91625 -7.93541,-5.33541c0,0 -0.33541,-0.67082 0.33541,-1.00623c0.67082,-0.33541 1.00623,0.33541 1.00623,0.33541c1.44549,3.01141 4.65694,3.4215 7.26459,4.66459l0.06459,-0.07918c0,0 0.75,0 0.75,0.75z" fill="#00301a" stroke="none" stroke-width="0.5" stroke-linecap="butt"/></g></g></svg>