<svg version="1.1" xmlns="http://www.w3.org/2000/svg" xmlns:xlink="http://www.w3.org/1999/xlink" width="262.55414" height="390.29996" viewBox="0,0,262.55414,390.29996"><g transform="translate(-107.30683,19.48052)"><g data-paper-data="{&quot;isPaintingLayer&quot;:true}" fill-rule="nonzero" stroke-linejoin="miter" stroke-miterlimit="10" stroke-dasharray="" stroke-dashoffset="0" style="mix-blend-mode: normal"><path d="M351.24547,346.01813c0,0 -2.82259,7.66641 -15.91288,12.98399c-15.55117,6.31728 -22.25517,5.0836 -22.25517,5.0836c0,0 -26.62354,-53.94385 -32.7375,-64.34423c-1.99778,-3.3984 -4.97586,-7.26328 -4.97586,-7.26328l30.06806,-14.57137c0,0 9.95843,14.80532 16.15509,24.01797c8.39607,12.48253 29.65828,44.09332 29.65828,44.09332z" fill="#4f1f00" stroke="#000000" stroke-width="0.5" stroke-linecap="butt"/><path d="M309.05546,362.07042l-13.91751,-25.52064l36.94775,-17.78837l15.10925,23.32297z" fill="#9d0000" stroke="#000000" stroke-width="2.5" stroke-linecap="butt"/><path d="M321.15993,351.28644l-11.91704,-21.76256l13.75484,-6.59008l12.66579,22.79425z" fill="#b9b9b9" stroke="#000000" stroke-width="2.5" stroke-linecap="butt"/><path d="M320.38119,347.79272l9.64244,-10.75399" fill="none" stroke="#000000" stroke-width="1.5" stroke-linecap="round"/><path d="M307.39671,348.56018c4.4956,-2.42 17.62372,-2.88362 24.58801,-4.25592c8.4634,-1.66769 17.1218,-5.30628 22.4782,-4.20244c4.07449,0.83966 5.88298,5.88925 6.31545,8.08399c1.001,5.07998 -10.26742,11.57844 -25.16871,14.51471c-14.90129,2.93627 -27.45432,2.91542 -28.45532,-2.16456c-0.53317,-2.7058 -4.88114,-9.21776 0.24237,-11.97577z" fill="#9d0000" stroke="#000000" stroke-width="2.5" stroke-linecap="butt"/><path d="M308.44304,358.89876c4.15486,-3.06853 15.28009,-5.81574 25.34433,-7.86504c9.8619,-2.00811 20.80908,-6.11132 25.88997,-4.99676c2.55174,0.55976 1.84431,4.00243 2.1068,5.29154c0.78515,3.85591 -10.58812,9.42719 -25.40291,12.44381c-14.81479,3.01663 -26.776,1.94164 -27.56115,-1.91427c-0.25177,-1.23645 -2.33824,-1.51085 -0.37704,-2.95928z" fill="#e5ffff" stroke="#000000" stroke-width="2.5" stroke-linecap="butt"/><path d="M324.70665,318.43553c-4.22433,4.37641 -29.46736,-34.61052 -33.81435,-34.06846c-3.90167,0.48652 -54.5845,-160.36053 -51.02488,-168.46314c1.42761,-3.2496 6.77675,-6.52815 8.90822,-8.9797c2.6135,-3.00599 5.28607,-2.08061 8.0111,-4.20406l1.51277,-0.76864c0,0 1.32662,-0.50971 2.09737,0.31533c0.44538,-0.05005 0.71592,0.0309 0.71592,0.0309c8.5137,2.61406 82.04752,183.60922 63.59387,216.13776z" data-paper-data="{&quot;index&quot;:null}" fill="#000000" stroke="#1f1f1f" stroke-width="5" stroke-linecap="butt"/><path d="M163.64816,323.43868c-18.45365,-32.22871 55.08017,-211.55558 63.59386,-214.14555c0,0 0.27055,-0.0802 0.71593,-0.03061c0.77074,-0.81743 2.09736,-0.31242 2.09736,-0.31242l1.51277,0.76156c2.72503,2.10387 5.3976,1.18703 8.0111,4.16531c2.13147,2.42896 7.48062,5.67728 8.90822,8.89693c3.55963,8.02793 -47.12321,167.39239 -51.02488,166.91036c-4.34698,-0.53707 -29.59001,38.0905 -33.81434,33.75444z" data-paper-data="{&quot;index&quot;:null}" fill="#000000" stroke="#1f1f1f" stroke-width="5" stroke-linecap="butt"/><g stroke-linecap="butt"><g><path d="M289.08894,116.38184c19.07323,-13.44878 44.16258,-34.28087 44.16258,-34.28087l8.29012,12.26337c0,0 -22.8271,10.14966 -48.42999,28.20258c-22.29859,15.72302 -144.57122,103.04106 -158.25456,109.63285c-2.02765,0.9768 -2.67451,-3.5861 -2.92865,-3.97686c-1.96923,-3.02776 131.5576,-93.78816 157.16049,-111.84107z" fill="#4d2b13" stroke="#1d0800" stroke-width="0.5"/><path d="M139.3639,160.70667c20.85789,-13.83777 63.31191,-6.5718 63.31191,-6.5718c0,0 -23.03341,17.81858 -21.51299,20.15629c6.60118,10.14959 -4.50605,24.30695 -1.20283,37.64552c2.00276,8.08722 36.17712,1.66472 31.46599,4.98661c-1.16763,0.82332 -24.74831,20.00286 -43.57419,14.02257c-13.41206,-4.26052 -28.18342,-19.08803 -31.88815,-24.78418c-3.44345,-5.29444 -27.99406,10.80422 -27.99406,10.80422c0,0 10.53642,-42.42147 31.39431,-56.25922z" fill="#a80000" stroke="#1d0800" stroke-width="0.5"/><path d="M133.16546,163.84706c0,0 9.33141,-7.24613 20.0963,-9.68443c19.05815,-4.31676 46.59434,-5.71124 49.20797,-1.69268c4.08992,6.28842 -31.21074,17.7326 -54.49335,34.14948c-23.28262,16.41688 -36.34284,36.69018 -40.43276,30.40176c-2.62706,-4.03922 17.29425,-47.30225 25.62184,-53.17415z" fill="#cdcbca" stroke="none" stroke-width="0"/></g><text transform="translate(233.46603,162.66654) rotate(-35.87583) scale(0.53202,0.14318) skewX(-0.55652)" font-size="40" xml:space="preserve" fill="#000000" fill-rule="nonzero" stroke="none" stroke-width="1" stroke-linecap="butt" stroke-linejoin="miter" stroke-miterlimit="10" stroke-dasharray="" stroke-dashoffset="0" font-family="Handwriting" font-weight="normal" text-anchor="start" style="mix-blend-mode: normal"><tspan x="0" dy="0">Hizoki</tspan></text></g><path d="" fill="#003701" stroke="#001501" stroke-width="0" stroke-linecap="butt"/><g><path d="M163.16672,334.23611l-14.5,-9.75l13,-7" fill="none" stroke="#000000" stroke-width="1.5" stroke-linecap="round"/><g stroke="#000000"><g stroke-linecap="butt"><path d="M167.69592,370.42625c-14.2437,0.3491 -20.19296,-5.84419 -20.19296,-5.84419l10.60533,-84.60171l37.60076,-0.48206l-5.54369,86.52995c0,0 -5.54799,3.98327 -22.46943,4.398z" data-paper-data="{&quot;index&quot;:null}" fill="#4f1f00" stroke-width="0.5"/><path d="M147.25005,353.56944l4,-27.5l41,0.75l-2,29z" data-paper-data="{&quot;index&quot;:null}" fill="#9d0000" stroke-width="2.5"/><path d="M198.68818,360.94444c0,5.17767 -12.31217,7.625 -27.5,7.625c-15.18783,0 -27.5,-4.19733 -27.5,-9.375c0,-2.23694 0.79813,-7.5409 4.63342,-9.15244c5.04194,-2.11857 14.24045,-0.22256 22.86658,-0.22256c7.0982,0 20.06828,-2.08319 24.94693,-0.57798c5.56006,1.71545 2.55307,8.94515 2.55307,11.70298z" data-paper-data="{&quot;index&quot;:null}" fill="#9d0000" stroke-width="2.5"/><path d="M198.82434,362.19444c0,3.93503 -11.50621,7.375 -26.625,7.375c-15.11879,0 -27.375,-3.18997 -27.375,-7.125c0,-1.31556 -1.38012,-4.54785 1.00863,-5.6055c4.75633,-2.10593 16.30211,-0.2695 26.36637,-0.2695c10.27076,0 21.72043,0.47217 26.404,2.64999c2.21076,1.02799 0.221,1.71319 0.221,2.97501z" data-paper-data="{&quot;index&quot;:null}" fill="#e5ffff" stroke-width="2.5"/></g><path d="M164.25005,354.31944l2,-26l15.25,0.25l-1.75,24.75z" data-paper-data="{&quot;index&quot;:null}" fill="#b9b9b9" stroke-width="2.5" stroke-linecap="butt"/><path d="M164.91672,351.81944l13.25,-5.75" fill="none" stroke-width="1.5" stroke-linecap="round"/><path d="M165.41672,330.31943l13.75,7.5l-12,7.75l12.5,5.25" fill="none" stroke-width="1.5" stroke-linecap="round"/></g><g stroke-linecap="butt"><path d="M146.39989,308.3052l72.83609,-114.60717l37.14585,20.15716c0,0 -3.80403,6.57609 -6.60434,10.5418c-2.80032,3.96571 -8.85603,11.35265 -8.85603,11.35265l-63.67433,102.29302z" fill="#000676" stroke="none" stroke-width="0.5"/><path d="M250.4278,221.26312c0.08246,0.93933 -8.28113,12.59957 -8.28113,12.59957c0,0 -22.81951,36.00102 -31.56057,53.16422c-8.73836,17.15789 -20.87769,49.79904 -20.87769,49.79904l-46.04481,-10.34972c0,0 4.42497,-32.97177 11.50421,-44.80043c12.08831,-20.19831 53.09501,-78.36594 53.09501,-78.36594c0,0 2.15613,13.22265 12.07571,20.43032c3.02695,2.1994 14.59222,5.06384 18.10798,-0.16114c5.3331,-7.92581 -6.2186,-24.22383 -1.96178,-26.68607c0.23322,-0.1349 10.90577,6.62552 14.89845,13.82514c2.38293,4.29691 -1.09903,10.63109 -0.95535,10.54506z" fill="#00044c" stroke="#000000" stroke-width="0"/></g><path d="M141.14568,331.44692l6.97531,-14.13724c0,0 10.04279,6.01658 16.56257,7.69908c15.33184,3.95656 29.5953,3.35118 29.5953,3.35118l-0.93428,9.70031c0,0 -5.46156,2.01588 -15.92937,1.56905c-3.28029,-0.14004 -13.74238,-2.08684 -16.07826,-2.40073c-7.4308,-0.99854 -20.19125,-5.78165 -20.19125,-5.78165z" fill="#000676" stroke="#000000" stroke-width="0.5" stroke-linecap="butt"/></g><path d="" fill="#003701" stroke="#001501" stroke-width="0" stroke-linecap="butt"/><path d="" fill="#003701" stroke="#001501" stroke-width="0" stroke-linecap="butt"/><path d="" fill="#003701" stroke="#001501" stroke-width="0" stroke-linecap="butt"/><path d="M280.24506,49.67481c-1.56829,25.48337 -33.72306,45.14675 -56.32789,45.57346c-1.03716,0.01957 -1.83781,4.25718 -2.83183,4.17568c-3.17738,-0.26051 -3.59889,-6.04918 -6.00953,-7.85521c-0.59179,-0.44338 -3.51197,3.51308 -4.06092,3.02592c-1.04808,-0.93013 -0.0664,-5.08806 -0.9653,-6.07462c-0.58889,-0.64635 -3.09965,1.87551 -3.62777,1.25307c-8.78857,-10.35804 -9.40705,-27.7279 -8.23172,-46.8261c0.84977,-13.80808 -4.35631,-20.09966 4.08777,-28.24814c4.62643,-4.46447 24.59953,-18.47975 19.3148,-9.45398c-1.33777,2.28477 5.97089,-1.65739 12.44096,-4.55279c3.41822,-1.52968 10.45983,-4.9501 9.04934,-4.206c-0.95909,0.50598 1.14021,2.46295 1.76184,3.01181c1.35794,1.19893 4.57003,1.41133 9.26671,3.09238c4.22636,1.51273 9.79762,4.36507 13.84975,7.61417c11.22268,8.99861 13.12663,25.77425 12.28375,39.47037z" data-paper-data="{&quot;index&quot;:null}" fill="#220e00" stroke="#1d0800" stroke-width="0.5" stroke-linecap="butt"/><g stroke-width="0.5" stroke-linecap="butt"><path d="M257.92669,111.45778c0,0 -3.54628,18.74602 -10.4432,19.35909c-3.71379,0.33012 -18.79644,2.32983 -26.03097,-1.58227c-7.39955,-4.00132 -6.91134,-13.92032 -6.91134,-13.92032c0,0 8.13389,-5.4898 9.9591,-9.60716c1.59972,-3.60868 0.40522,-13.77279 0.40522,-13.77279h22.1748c0,0 0.23937,10.79518 2.09196,14.12984c1.75792,3.16423 8.75442,5.39363 8.75442,5.39363z" fill="#4f1f00" stroke="#000000"/><path d="M247.08032,91.93439c0,0 0.12687,5.72069 0.91055,10.11958c-3.16317,0.49696 -5.68744,0.90705 -6.8957,0.96781c-5.37928,0.27048 -10.67299,0.12085 -15.90853,-0.40828c0.45241,-4.43749 -0.28113,-10.67914 -0.28113,-10.67914h22.1748z" fill="#411a00" stroke="none"/></g><g stroke-linecap="butt"><path d="M212.61598,204.66666v-89.66336c0,0 17.47582,5.78473 27.2334,5.78473c10.91939,0 26.51337,-6.74885 26.51337,-6.74885l8.67709,90.62748z" fill="#1f1f1f" stroke="#000000" stroke-width="0.5"/><path d="M273.90487,202.39671c0,0 -14.76518,3.67555 -26.47944,5.167c-2.9816,0.37961 -5.76557,0.61773 -8.0581,0.61773c-10.5985,0 -31.29126,-5.78473 -31.29126,-5.78473l17.83625,-84.55596c0,0 6.04708,79.39587 14.87523,80.2762c10.79644,1.07662 10.46043,-80.75826 10.46043,-80.75826l22.65688,85.03801z" fill="#060606" stroke="none" stroke-width="0.5"/><g stroke="none"><g fill="none" stroke-width="1" font-family="sans-serif" font-weight="normal" font-size="12" text-anchor="start"/><path d="M255.11613,159.9478c0.98945,-2.05237 2.01709,-4.06542 3.58303,-5.69481c0.72669,-0.7602 1.83223,-1.62482 2.43255,-2.33908c0.10847,-0.12906 -0.27161,-0.51152 -0.10383,-0.49496c1.11175,0.10963 2.57278,2.27264 3.16827,3.07264c2.09374,2.81269 3.94406,6.02327 3.21538,9.66669c-0.51651,2.7064 -2.85896,5.65434 -4.98146,7.41482c-0.30539,0.25329 -0.53547,0.61548 -0.8935,0.78645c-0.20244,0.09669 -1.30708,-0.17147 -1.41782,0c-0.23575,0.36505 -1.37509,-2.29047 -1.83849,-3.36647c-1.33726,-3.10514 -2.41951,-6.03961 -3.16415,-9.04525z" fill="#ffffff" stroke-width="0.5"/></g></g><g data-paper-data="{&quot;index&quot;:null}" stroke="#000000" stroke-linecap="butt"><path d="M172.92243,162.08685c-7.53755,-5.12043 -6.40822,-13.55558 -6.40822,-13.55558l61.21882,-39.52194l3.80286,12.13522l-42.67575,48.63654c0,0 -5.78453,-0.79695 -15.93773,-7.69426z" fill="#00380c" stroke-width="0.5"/><path d="M227.73302,109.00932l3.80286,12.13522l-49.49455,47.04676l23.56421,-45.16633z" fill="#001f07" stroke-width="0"/></g><path d="M202.42938,113.3116v-16.99266l22.41583,-0.36155c0,0 1.58294,6.41038 1.10418,9.28293c-0.48526,2.91165 -3.99654,8.07127 -3.99654,8.07127z" fill="#001f07" stroke="#000000" stroke-width="0.5" stroke-linecap="butt"/><g stroke="#000000" stroke-linecap="butt"><path d="M313.08263,155.96207c0,0 1.29831,7.6828 -4.35856,12.69102c-7.61987,6.74616 -12.11458,7.71882 -12.11458,7.71882l-35.83018,-42.78356l2.38613,-11.28024l49.9172,33.65397z" fill="#00380c" stroke-width="0.5"/><path d="M281.19477,134.22534l20.68122,40.40402l-41.09668,-41.04099l2.38614,-11.28024z" fill="#001f07" stroke-width="0"/></g><path d="M327.78549,337.88037l-17.24563,-2.81082l8.8937,-11.78567" fill="none" stroke="#000000" stroke-width="1.5" stroke-linecap="round"/><path d="M306.81469,329.3524l15.62525,1.07895l-7.67197,12.05004l13.55047,-0.4443" fill="none" stroke="#000000" stroke-width="1.5" stroke-linecap="round"/><g stroke="#000000" stroke-linecap="butt"><path d="M329.25512,171.24604c3.61045,-11.18076 18.6988,-16.03122 28.41889,-9.73484c9.03514,5.85269 13.34495,10.19989 11.52823,17.86095c-2.34808,9.90181 -9.98839,17.02388 -24.09018,13.05841c-11.14881,-3.13506 -19.4674,-10.00377 -15.85693,-21.18453z" fill="#4f1f00" stroke-width="0.5"/><path d="M343.69594,191.51329c-11.39596,-7.38197 3.46932,-10.67584 3.46932,-10.67584l7.06967,-21.55396l11.47279,28.39595c0,0 -10.61579,11.21581 -22.01177,3.83384z" fill="#411a00" stroke-width="0"/><path d="M352.57115,197.6213l-55.40666,-21.53171c0,0 0.33096,-9.4875 0.74516,-13.57644c0.46674,-4.60761 4.32121,-12.86498 4.32121,-12.86498l50.55644,8.62574z" fill="#00380c" stroke-width="0.5"/></g><g stroke-linecap="butt"><path d="M302.0677,267.52512c0,0 -9.08762,10.21137 -15.53353,13.57016c-6.44592,3.35878 -18.07036,4.50994 -18.07036,4.50994l-24.58803,-45.4683l30.02747,-14.31636z" fill="#f5dfd0" stroke="none" stroke-width="0.5"/><path d="M283.48883,239.18941c0,0 -5.87525,6.14738 -10.49993,8.42597c-5.68225,2.79968 -21.07878,7.13303 -21.07878,7.13303l-6.4363,-14.01907l30.39391,-12.36285l7.62111,10.82292z" fill="#e0ccbf" stroke="none" stroke-width="0.5"/><g><path d="M241.53367,245.91047l-5.16273,-6.41872c0,0 -5.79474,-7.59339 -8.45522,-11.65424c-2.66049,-4.06087 -6.23314,-10.76544 -6.23314,-10.76544l37.82544,-18.85106l17.94243,18.28438z" fill="#000676" stroke="none" stroke-width="0.5"/><path d="M236.37089,239.49179l-16.52279,-22.60865c0,0 29.15738,-13.47381 29.20146,-13.83207c0.22126,0.14317 -12.12309,15.07003 -11.97698,23.33065c0.10227,5.78346 9.51397,7.54299 20.04156,1.90248c10.16462,-6.85779 11.1843,-14.6465 11.1843,-14.6465c0,0 18.54596,23.33911 27.99248,38.43263c12.36801,19.76143 39.84153,69.9516 39.84153,69.9516l-40.63652,21.65852c0,0 -14.39889,-40.64396 -25.53466,-58.65025c-10.1472,-16.40778 -33.59036,-45.53845 -33.59036,-45.53845z" fill="#00044c" stroke="#000000" stroke-width="0"/><path d="M343.17192,319.47161c0,0 -9.70788,9.56371 -16.0885,13.50089c-2.00576,1.23767 -10.76904,7.27507 -13.70819,8.7384c-9.37916,4.66967 -15.18833,5.05187 -15.18833,5.05187l-4.80244,-8.47971c0,0 13.27441,-5.25383 25.66744,-15.10943c5.27007,-4.19102 11.99353,-13.77497 11.99353,-13.77497l12.12652,10.07295z" fill="#000676" stroke="#000000" stroke-width="0.5"/></g></g><g stroke="#000000" stroke-width="0.5" stroke-linecap="butt"><path d="M252.02142,112.34744c0,0 -3.9781,-4.30204 -4.88218,-7.35581c-0.90364,-3.05233 1.62826,-9.51633 1.62826,-9.51633l17.95678,-2.89236c0,0 12.29256,8.42248 12.29256,13.13616c0,4.23299 -12.29256,13.85925 -12.29256,13.85925z" fill="#001f07"/><path d="M261.1203,223.92491l-10.84638,-102.679c0,0 -0.11429,-8.61197 3.48113,-10.20119c7.82864,-3.46036 17.63897,-4.07225 20.15068,-9.52337c3.79542,-8.23708 -26.21877,-2.29823 -26.21877,-2.29823l0.10271,-5.00478c0,0 24.16706,-12.88159 36.22053,8.45448c2.9655,5.24927 1.03327,10.12163 -2.63674,14.92964c-3.29936,4.32242 -7.59906,5.81269 -7.59906,5.81269l22.77739,91.47108z" fill="#00380c"/><path d="M183.91661,214.88624l22.77739,-91.47108c0,0 -4.29968,-1.49025 -7.59904,-5.81269c-3.67,-4.80802 -5.60225,-9.68037 -2.63675,-14.92966c12.05347,-21.33607 27.90497,-9.17758 27.90497,-9.17758l0.94633,3.92012c0,0 -26.51924,-2.68492 -22.72382,5.55216c2.51173,5.45111 16.29905,4.6168 24.12769,8.07718c3.59542,1.58922 3.48113,10.20119 3.48113,10.20119l-10.84638,102.679z" data-paper-data="{&quot;index&quot;:null}" fill="#00380c"/></g><path d="M244.65655,94.85396c-17.75284,-0.70663 -43.92781,-19.21952 -43.92781,-42.92801c0,-23.70848 19.66715,-42.92801 43.92781,-42.92801c24.26066,0 43.92781,19.21952 43.92781,42.92801c0,23.70848 -26.55094,43.61968 -43.92781,42.92801z" fill="#4f1f00" stroke="#000000" stroke-width="0.5" stroke-linecap="butt"/><path d="M244.6566,8.9979c19.32547,0 35.73621,26.32812 41.61315,43.27339c-10.9927,-3.69556 3.35651,12.97938 -5.87883,19.48433c-2.90677,2.04739 -19.95364,-18.96988 -19.95364,-18.96988c0,0 -6.13412,11.41163 -11.43342,13.64842c-7.78231,3.28488 -35.56553,0.85722 -35.56553,0.85722c0,0 5.36896,10.19236 11.73247,15.78063c6.36351,5.58829 18.79471,11.0276 18.79471,11.0276c0,0 -19.31502,-0.44376 -34.49938,-19.5025c-9.41405,-11.81609 -8.73736,1.03731 -8.73736,-22.67118c0,-23.70848 19.66715,-42.92801 43.92781,-42.92801z" fill="#411a00" stroke="#000000" stroke-width="0" stroke-linecap="butt"/><path d="M265.33838,22.68367c3.49434,0 6.32705,10.87303 6.32705,24.28561c0,13.41257 -2.83271,24.28561 -6.32705,24.28561c-3.49434,0 -6.32705,-10.87303 -6.32705,-24.28561c0,-13.41257 2.83271,-24.28561 6.32705,-24.28561z" fill="#00ffff" stroke="none" stroke-width="0.5" stroke-linecap="butt"/><path d="M236.89956,21.12628c3.49434,0 6.32705,11.09689 6.32705,24.78561c0,13.68871 -2.83271,24.78561 -6.32705,24.78561c-3.49434,0 -6.32705,-11.09689 -6.32705,-24.78561c0,-13.68871 2.83271,-24.78561 6.32705,-24.78561z" fill="#00ffff" stroke="none" stroke-width="0.5" stroke-linecap="butt"/><g fill="#ffffff" stroke="#c7c7c7" stroke-width="0.5" stroke-linecap="butt"><path d="M261.63467,126.12765c1.88753,-0.1772 3.999,5.87138 4.71611,13.50988c0.71712,7.6385 -0.23167,13.97439 -2.11921,14.15159c-1.88753,0.1772 -3.999,-5.87138 -4.71611,-13.50988c-0.71712,-7.6385 0.23167,-13.97439 2.11921,-14.15159z"/><path d="M260.91217,121.49235c2.04482,-0.19197 3.87883,1.53093 4.09638,3.84824c0.21755,2.31728 -1.26374,4.35145 -3.30856,4.54342c-2.04482,0.19197 -3.87883,-1.53093 -4.09638,-3.84824c-0.21755,-2.31728 1.26374,-4.35145 3.30856,-4.54342z"/></g><g fill="#ffffff" stroke="#c7c7c7" stroke-width="0.5" stroke-linecap="butt"><path d="M215.83376,129.88297c1.89583,0 3.43269,6.21946 3.43269,13.89155c0,7.67209 -1.53685,13.89155 -3.43269,13.89155c-1.89583,0 -3.43269,-6.21946 -3.43269,-13.89155c0,-7.67209 1.53685,-13.89155 3.43269,-13.89155z"/><path d="M215.54769,125.20046c2.05381,0 3.71875,1.88678 3.71875,4.21428c0,2.32747 -1.66494,4.21428 -3.71875,4.21428c-2.05381,0 -3.71875,-1.88678 -3.71875,-4.21428c0,-2.32747 1.66494,-4.21428 3.71875,-4.21428z"/></g><path d="M209.05776,51.84971c0.45906,12.54447 0.52223,37.15578 -3.11486,37.32187c-2.23534,0.10207 2.15617,-2.92271 -2.94508,-7.92633c-3.19893,-3.13771 -10.08231,-13.64209 -10.25924,-18.47678c-0.27539,-7.5255 -1.53612,-29.13919 2.23542,-35.52897c2.51536,-4.26155 0.29234,-1.39616 1.74752,-1.46262c0.8576,-0.03916 7.4549,-1.95506 11.30389,-6.09681c5.08244,-5.46903 12.30676,-9.60077 13.36822,-6.82065c0.15973,0.41836 9.59262,-3.10685 16.00427,-3.94727c16.33854,-2.14166 39.87735,-3.31687 38.50364,0.9571c-0.11477,0.3571 7.66681,3.51606 11.89494,1.96874c3.92175,-1.43519 4.26463,-7.74808 5.32403,-3.59331c0.26973,1.05785 -0.76429,14.34949 0.89109,15.46842c2.95291,1.996 9.05017,-7.8559 7.83185,-3.56952c-1.28861,4.53363 0.59018,17.67176 -3.23626,22.82529c-2.77491,3.73732 -10.43047,15.96351 -13.70355,16.38145c-1.89083,0.24143 -0.58286,-11.29094 -0.50685,-10.4639c0.69783,7.59467 1.62992,19.57843 -0.38474,22.56225c-0.57111,0.84583 -5.00083,-1.44959 -5.15158,-3.7278c-0.17414,-2.63123 0.37574,-13.10521 -1.39189,-17.1214c-1.36232,-3.09531 -6.71338,-6.47445 -8.39201,-8.64063c-3.0263,-3.90533 -4.87818,17.78959 -7.32123,17.42341c-2.70846,-0.40596 -2.05529,-24.16406 -3.96521,-21.26368c-4.20126,6.37995 -10.16448,12.74708 -12.36958,14.81976c-2.80195,2.63369 2.5791,-8.30847 0.78759,-8.70969c-1.86501,-0.41771 -11.53423,14.26464 -14.30823,15.80004c-4.18222,2.31484 -1.62015,-23.68843 -5.20236,-23.33716c-4.56032,0.44719 -4.68198,28.70598 -7.57392,32.32578c-1.35121,1.69132 -0.55306,-4.88515 -2.08283,-1.53979c-1.79145,3.91759 -7.99513,-15.95842 -7.98303,-15.62786z" data-paper-data="{&quot;index&quot;:null}" fill="#220e00" stroke="#1d0800" stroke-width="0.5" stroke-linecap="butt"/><g data-paper-data="{&quot;index&quot;:null}" stroke-width="0.5"><g fill="#87ff8e" stroke="#66c06a" stroke-linecap="butt"><path d=""/><path d=""/><path d=""/><path d=""/><path d=""/></g><g data-paper-data="{&quot;index&quot;:null}"><path d="" data-paper-data="{&quot;index&quot;:null}" fill="#1b1b1b" stroke="none" stroke-linecap="butt"/><path d="M228.1098,45.5193c-0.00446,0.00494 -0.00893,0.00992 -0.01338,0.01486l-0.00271,-0.00943z" data-paper-data="{&quot;index&quot;:null}" fill="#1b1b1b" stroke="none" stroke-linecap="butt"/><path d="M214.82922,40.93106c0,0 0.95718,-5.62843 6.63717,-9.81266c5.85618,-4.31403 12.13347,-2.20967 12.13347,-2.20967" data-paper-data="{&quot;index&quot;:null}" fill="#1b1b1b" stroke="#000000" stroke-linecap="round"/><path d="M193.83671,46.3363c-4.05731,-16.66052 -3.73049,-28.63429 0.06474,-35.60698c2.60077,-4.77822 7.82854,-5.46192 10.41337,-10.65234c4.70967,-9.45713 15.48503,-10.11964 15.48503,-10.11964c0,0 8.40802,-6.46188 27.58781,-9.00965c8.12244,-1.07896 13.46111,2.99134 18.096,5.49457c4.52436,2.44356 7.76228,2.77045 10.38338,6.12004c2.92401,3.73669 5.0559,10.57046 6.84798,14.65122c1.38232,3.14775 -0.83778,7.2298 -0.83778,7.2298c0,0 2.44912,-3.24823 5.3516,4.72159c0.46617,1.28006 -0.32231,1.30288 0.59282,6.04132c0.20151,1.0433 1.64514,2.54806 2.03996,3.98079c0.81381,2.95328 0.68863,5.89167 0.68863,5.89167c0,0 -21.74435,-3.25187 -45.36862,1.244c-8.98851,1.71058 -39.98235,11.77547 -39.98235,11.77547c0,0 -1.8912,0.95177 -4.02912,-5.02012c-0.35632,-0.99534 -0.16918,-3.42461 -0.16918,-3.42461l1.16319,7.26792c0,0 -7.01738,4.79454 -8.32746,-0.58503z" data-paper-data="{&quot;index&quot;:null}" fill="#1b1b1b" stroke="#000000" stroke-linecap="butt"/><path d="M282.31886,15.23367l-81.56509,24.46964" data-paper-data="{&quot;index&quot;:null}" fill="#1b1b1b" stroke="#000000" stroke-linecap="round"/><path d="M273.02793,17.49881c0,0 -0.28126,-6.43016 0.40063,-7.96821c0.92664,-2.09008 4.65369,-3.43209 4.65369,-3.43209" data-paper-data="{&quot;index&quot;:null}" fill="#101010" stroke="none" stroke-linecap="round"/><path d="M202.39748,30.44332c0,0 2.90498,0.2733 4.35752,1.22867c1.37638,0.90526 4.14158,4.36136 4.14158,4.36136" data-paper-data="{&quot;index&quot;:null}" fill="#0a0a0a" stroke="none" stroke-linecap="round"/><path d="M208.02744,11.22889c0,0 0.53611,6.41456 -0.8257,9.22868c-2.92522,6.04479 -7.98888,7.36081 -7.98888,7.36081" data-paper-data="{&quot;index&quot;:null}" fill="#101010" stroke="none" stroke-linecap="round"/><path d="M219.69732,-9.88049c0,0 -6.35932,10.46392 -11.23713,12.00355c-0.97621,0.30814 -2.15339,-1.0051 -2.15339,-1.0051" data-paper-data="{&quot;index&quot;:null}" fill="#101010" stroke="none" stroke-linecap="round"/><path d="M279.69504,16.72712l3.49048,17.23016" data-paper-data="{&quot;index&quot;:null}" fill="#1b1b1b" stroke="#000000" stroke-linecap="round"/><path d="M268.79645,33.21615l-2.11561,-13.26674" data-paper-data="{&quot;index&quot;:null}" fill="#1b1b1b" stroke="#000000" stroke-linecap="round"/><path d="M255.37082,34.27996l-2.16487,-10.27497" data-paper-data="{&quot;index&quot;:null}" fill="#1b1b1b" stroke="#000000" stroke-linecap="round"/><path d="M243.21579,36.59317l-2.04412,-8.55821" data-paper-data="{&quot;index&quot;:null}" fill="#1b1b1b" stroke="#000000" stroke-linecap="round"/><path d="M227.98747,32.53228l1.61634,7.39696" data-paper-data="{&quot;index&quot;:null}" fill="#1b1b1b" stroke="#000000" stroke-linecap="round"/><path d="M214.86542,36.27217l1.41705,7.43488" data-paper-data="{&quot;index&quot;:null}" fill="#1b1b1b" stroke="#000000" stroke-linecap="round"/><path d="M206.5479,46.80228l-1.70776,-7.87661" data-paper-data="{&quot;index&quot;:null}" fill="#1b1b1b" stroke="#000000" stroke-linecap="round"/></g></g><path d="M203.84565,62.44278c0.25496,7.0577 1.14142,13.51311 -3.47812,13.67811c-4.61955,0.16501 -9.75928,-6.5176 -10.01425,-13.57533c-0.1551,-4.29358 -1.27586,-10.14268 0.76611,-12.53576c1.31458,-1.54065 5.32745,-0.4775 7.13669,-0.54214c4.61955,-0.16502 5.33462,5.91738 5.58958,12.9751z" data-paper-data="{&quot;index&quot;:null}" fill="#4f1f00" stroke="#000000" stroke-width="0.5" stroke-linecap="butt"/><path d="M197.11956,56.11214c0.28886,3.46307 -2.41115,9.90857 -3.68974,10.0147c-1.27857,0.10613 -2.12705,-5.77327 -2.41593,-9.23635c-0.17104,-2.05057 0.16174,-5.50032 1.0502,-6.80374c0.612,-0.89783 2.63784,-0.22362 3.15934,-0.2669c1.27857,-0.10613 1.60723,2.82922 1.89611,6.29229z" data-paper-data="{&quot;index&quot;:null}" fill="#411a00" stroke="none" stroke-width="0.5" stroke-linecap="butt"/><path d="M228.6579,79.421c5.10976,-1.55505 33.91354,-2.04119 38.74993,2.70762c3.93826,3.86695 3.46119,21.67248 -1.36568,26.22983c-3.9985,3.77519 -4.86517,4.98136 -10.39052,6.4849c-10.61192,2.8877 -23.43937,2.12609 -36.95224,-2.63969c-0.71807,0.06379 -1.26347,0.00052 -1.26347,0.00052l-2.10898,-0.24457c-1.80073,-2.40119 -8.67566,-18.25271 -8.5277,-19.43138c0.3652,-2.90897 13.53397,-10.57373 21.85862,-13.10716z" data-paper-data="{&quot;index&quot;:null}" fill="#060606" stroke="#1f1f1f" stroke-width="5" stroke-linecap="butt"/><g data-paper-data="{&quot;index&quot;:null}" stroke="#000000" stroke-linecap="butt"><path d="M191.46436,161.24794c1.00053,-11.70655 11.32984,-14.81834 22.82287,-13.3919c14.5372,1.8043 18.8237,11.3292 17.15451,21.36776c-1.29144,7.7669 -6.94836,10.10617 -17.54492,12.00376c-11.39986,2.04145 -23.433,-8.27306 -22.43247,-19.97963z" fill="#4f1f00" stroke-width="0.5"/><path d="M211.69132,159.33984c0,0 -12.43022,-8.79296 0.93514,-11.18639c13.36537,-2.39342 18.81011,12.05804 18.81011,12.05804l-21.57311,21.73837l1.82781,-22.61002z" fill="#411a00" stroke-width="0"/><path d="M208.13785,182.32008l-49.95253,-11.6233c0,0 -0.35641,-9.10571 0.99739,-13.53461c1.20142,-3.93036 4.56996,-12.80589 4.56996,-12.80589l59.42176,1.60221z" fill="#00380c" stroke-width="0.5"/></g></g></g></svg>